<svg width="81" height="80" viewBox="0 0 81 80" fill="none" xmlns="http://www.w3.org/2000/svg">
<g clip-path="url(#clip0_3_824)">
<path d="M68.5356 73.5205C68.5603 73.7619 68.9406 73.7642 68.9158 73.5211C68.8083 72.4683 69.4536 71.4787 70.4681 71.1579C71.2644 70.9062 72.0674 71.2045 72.3039 72.0491C72.4081 72.4215 72.4119 72.7756 72.3097 73.1159C72.3065 73.1159 72.3036 73.1151 72.3004 73.1151C71.952 73.1095 71.6191 73.2028 71.3021 73.3406C71.0591 73.4462 70.7203 73.6134 70.6698 73.9053C70.612 74.2399 70.9983 74.4612 71.2791 74.5029C71.626 74.5545 71.9435 74.3588 72.1707 74.1122C72.3384 73.9302 72.4662 73.732 72.5619 73.5234C72.6134 73.532 72.665 73.5395 72.7159 73.5527C73.4108 73.732 74.0065 74.3151 74.1035 75.0418C74.1895 75.6852 73.6891 76.0708 73.1022 76.1874C72.9496 75.9747 72.7598 75.7906 72.5401 75.6653C72.1012 75.4147 71.6349 75.5261 71.4569 76.0193C71.4361 76.0769 71.4572 76.1649 71.5055 76.2043C71.8951 76.5221 72.4092 76.6388 72.9085 76.5945C73.0622 76.8715 73.1436 77.1915 73.0977 77.5028C73.0194 78.0324 72.5533 78.5379 72.0299 78.6515C70.975 78.8804 69.9429 77.7544 69.6349 76.8573C69.5558 76.627 69.1885 76.7259 69.2682 76.9576C69.5233 77.7008 70.0712 78.3707 70.7562 78.7595C71.3313 79.0858 72.0423 79.1845 72.6219 78.8121C73.2111 78.4337 73.5754 77.7533 73.466 77.0532C73.438 76.8745 73.3794 76.6956 73.2997 76.5246C73.4199 76.4923 73.538 76.4538 73.6496 76.4024C74.4245 76.0455 74.6616 75.2572 74.34 74.4877C74.0539 73.8035 73.4116 73.3061 72.6908 73.1615C72.77 72.8488 72.7809 72.5174 72.7217 72.1763C72.6273 71.6328 72.3329 71.1115 71.8246 70.861C71.3615 70.6329 70.8152 70.642 70.3322 70.8034C69.1869 71.1854 68.4118 72.3094 68.5356 73.5205ZM72.6345 76.2226C72.3587 76.2108 72.0937 76.1402 71.8851 76.0107C72.0739 75.7675 72.4479 76.0318 72.6345 76.2226ZM72.1414 73.5048C72.1271 73.5298 72.115 73.555 72.0995 73.5797C71.9593 73.8038 71.741 74.0838 71.4605 74.1272C71.3272 74.1479 71.2052 74.1002 71.0969 74.0249C71.0171 73.9696 71.0371 73.9625 71.1008 73.896C71.2696 73.7197 71.5708 73.6281 71.7985 73.5628C71.9112 73.5305 72.026 73.5139 72.1414 73.5048Z" fill="black"/>
<path d="M68.2437 74.4714H68.2433L61.5527 74.4594C61.4396 74.4589 61.348 74.3673 61.3483 74.2542C61.3488 74.1414 61.4404 74.0498 61.553 74.0498H61.5535L68.244 74.0618C68.3572 74.0623 68.4487 74.1539 68.4484 74.267C68.448 74.3798 68.3564 74.4714 68.2437 74.4714Z" fill="black"/>
<path d="M68.1301 76.2732H68.1296L63.9388 76.2655C63.8257 76.2651 63.734 76.1735 63.7344 76.0603C63.7349 75.9475 63.8265 75.856 63.9391 75.856H63.9396L68.1304 75.8636C68.2435 75.8641 68.3351 75.9557 68.3348 76.0688C68.3345 76.1816 68.2428 76.2732 68.1301 76.2732Z" fill="black"/>
<path d="M24.689 49.5069C17.6472 57.056 14.2991 67.093 15.4773 77.3849C15.7239 79.5395 19.1039 79.3582 18.8556 77.1896C17.7733 67.7352 20.7426 58.6972 27.2161 51.7576C28.7042 50.1618 26.175 47.9137 24.689 49.5069Z" fill="black"/>
<path d="M18.9641 74.9518C18.9641 74.9518 21.1209 73.2081 16.8143 73.0665C12.1969 72.9148 15.1009 74.8611 15.1009 74.8611L14.4057 75.2489C14.4057 75.2489 9.449 71.2983 7.56432 75.1778C5.67948 79.0573 11.0413 79.7625 14.3302 79.844C17.6192 79.9252 21.1451 80.6978 18.9641 74.9518Z" fill="#FF558B"/>
<path d="M16.6485 80.0003C16.215 80.0003 15.7586 79.9797 15.2952 79.9589C14.9743 79.9444 14.6502 79.9298 14.3283 79.9219C11.7279 79.8575 8.41532 79.4309 7.39992 77.7634C6.96504 77.0491 6.99676 76.1675 7.49399 75.1435C7.9409 74.2237 8.59736 73.6601 9.44493 73.4679C10.5956 73.2074 11.8981 73.6899 12.7883 74.1412C13.6143 74.56 14.2484 75.0296 14.4128 75.1554L14.9551 74.8529C14.6846 74.6524 13.99 74.0808 14.1441 73.6029C14.2947 73.1352 15.1685 72.9352 16.8169 72.9883C18.4538 73.0422 19.3735 73.3374 19.5509 73.8664C19.7118 74.3461 19.2116 74.8377 19.0566 74.9755C19.8184 77.0008 19.9172 78.3609 19.3585 79.1327C18.841 79.8476 17.8297 80.0003 16.6485 80.0003ZM10.1348 73.5502C9.91231 73.5502 9.69292 73.572 9.47946 73.6203C8.68049 73.8014 8.05982 74.3369 7.63478 75.2116C7.16209 76.1847 7.12787 77.0158 7.53353 77.682C7.97575 78.4081 9.44696 79.6446 14.3324 79.7654C14.6552 79.7736 14.9804 79.7882 15.3023 79.8026C16.9848 79.8783 18.5739 79.95 19.232 79.0407C19.762 78.3086 19.6506 76.9799 18.891 74.9794L18.871 74.9265L18.9149 74.891C18.9213 74.8858 19.554 74.3662 19.4026 73.9157C19.2962 73.5993 18.7605 73.2085 16.8116 73.1444C14.8844 73.0808 14.3783 73.3848 14.2925 73.6506C14.1677 74.0379 14.8651 74.6086 15.1443 74.7958L15.2502 74.8668L14.3981 75.3423L14.357 75.3096C14.3325 75.2902 12.123 73.5502 10.1348 73.5502Z" fill="black"/>
<path d="M17.5162 75.3119C17.3779 75.3119 17.2318 75.3055 17.0779 75.2906L17.0929 75.135C18.2091 75.2431 18.9213 74.8859 18.9283 74.8823L18.9994 75.0215C18.9732 75.035 18.4198 75.3119 17.5162 75.3119Z" fill="black"/>
<path d="M15.8416 75.1702C15.7649 75.1702 15.5025 75.1513 15.0657 74.9305L15.1361 74.791C15.6046 75.0279 15.849 75.0141 15.8518 75.0138L15.8649 75.1695C15.8632 75.1696 15.8554 75.1702 15.8416 75.1702Z" fill="black"/>
<path d="M14.4111 75.2432C14.5736 75.3204 14.7181 75.4168 14.8559 75.52C14.995 75.6221 15.1236 75.7354 15.2497 75.8511C15.3725 75.9705 15.4933 76.0921 15.6033 76.2249C15.7145 76.3566 15.8194 76.4949 15.9062 76.6524L15.8955 76.6638L15.1425 75.9649L14.4001 75.2546L14.4111 75.2432Z" fill="black"/>
<path d="M14.4136 75.248C14.4788 75.3859 14.5177 75.5254 14.5472 75.6657C14.5783 75.8059 14.5941 75.9471 14.6064 76.0885C14.6139 76.2304 14.6183 76.3724 14.6072 76.5155C14.5978 76.6585 14.5791 76.8023 14.5344 76.9477L14.5188 76.9488L14.4506 76.0996L14.3981 75.2493L14.4136 75.248Z" fill="black"/>
<path d="M9.98121 74.174C9.83198 74.252 9.68509 74.3278 9.55164 74.4253C9.48132 74.467 9.4171 74.5183 9.35006 74.5636C9.28584 74.6134 9.22458 74.6665 9.16239 74.7172C8.92081 74.9289 8.70767 75.17 8.56516 75.4513C8.40905 75.7229 8.30013 76.0256 8.25841 76.345L8.23419 76.4639L8.22575 76.5851L8.20919 76.8298C8.19919 76.9944 8.21575 77.1592 8.20622 77.3302L8.19091 77.3332C8.17012 77.1671 8.13965 77.0016 8.12699 76.8347L8.12356 76.5831L8.12262 76.4573L8.13762 76.3323L8.16887 76.0823L8.23325 75.8385C8.24997 75.7555 8.28826 75.6799 8.31951 75.6019C8.35154 75.5241 8.38217 75.4455 8.42874 75.3749C8.59156 75.0803 8.82049 74.8237 9.08785 74.6206C9.35616 74.4189 9.65602 74.2585 9.97699 74.1587L9.98121 74.174Z" fill="white"/>
<path d="M53.9146 68.3092C51.309 69.2246 48.7285 70.2145 46.1058 71.081C43.6251 71.9006 40.7102 72.718 38.0852 72.1454C31.6043 70.7319 37.089 62.9702 39.0504 59.8296C40.2074 57.9773 37.2809 56.2766 36.1285 58.1216C33.3439 62.5801 28.2744 70.6226 34.7005 74.4326C40.7477 78.0179 48.9876 73.6191 54.814 71.5721C56.8551 70.855 55.9766 67.5846 53.9146 68.3092Z" fill="black"/>
<path d="M50.4782 69.087C50.4782 69.087 48.0475 67.7514 49.5475 71.7906C51.1557 76.1214 51.8572 72.6968 51.8572 72.6968L52.4794 73.1932C52.4794 73.1932 50.7004 79.2768 55.0046 79.5519C59.309 79.8269 57.931 74.5974 56.7607 71.5228C55.5905 68.4482 54.9701 64.8923 50.4782 69.087Z" fill="#FF558B"/>
<path d="M55.3195 79.6405C55.2157 79.6405 55.1092 79.6371 54.9996 79.6301C53.9794 79.5649 53.209 79.171 52.7102 78.459C52.033 77.4925 51.9866 76.1043 52.0671 75.1097C52.1418 74.1867 52.3365 73.4219 52.3904 73.2222L51.9049 72.835C51.8217 73.1613 51.5559 74.0205 51.0554 74.059C50.5638 74.097 50.0483 73.3635 49.4744 71.8179C48.9043 70.2826 48.8291 69.3194 49.2514 68.955C49.6345 68.624 50.2788 68.9011 50.4651 68.9923C52.0507 67.5205 53.2718 66.9144 54.1983 67.1386C55.3709 67.4231 55.9203 68.9597 56.5019 70.5864C56.6099 70.8887 56.7193 71.1942 56.8338 71.495C57.7591 73.926 58.6188 77.1536 57.4601 78.7248C57.0114 79.3332 56.2922 79.6405 55.3195 79.6405ZM51.8063 72.5564L52.5693 73.165L52.5544 73.2153C52.5448 73.2488 51.5895 76.5878 52.8382 78.3695C53.3086 79.0403 54.0391 79.4119 55.0098 79.474C56.0878 79.5419 56.8715 79.2597 57.3344 78.632C57.8389 77.9477 58.426 76.1177 56.6876 71.5507C56.5729 71.2488 56.4632 70.9423 56.3547 70.639C55.7877 69.0531 55.252 67.5552 54.1613 67.2903C53.2828 67.0772 52.0953 67.6838 50.5315 69.1439L50.4902 69.1825L50.4407 69.1553C50.4333 69.1514 49.7131 68.7628 49.3534 69.0733C49.1007 69.2916 48.9421 69.9355 49.6209 71.7635C50.2919 73.5707 50.769 73.9279 51.0435 73.903C51.449 73.8719 51.7131 73.0103 51.7808 72.6811L51.8063 72.5564Z" fill="black"/>
<path d="M51.3565 70.7494C51.0347 69.6796 50.4333 69.1514 50.4272 69.1463L50.5291 69.0278C50.5551 69.0502 51.1704 69.5878 51.506 70.7044L51.3565 70.7494Z" fill="black"/>
<path d="M51.935 72.7034L51.7794 72.6909C51.8212 72.1666 51.7154 71.9462 51.7144 71.9441L51.8536 71.873C51.8587 71.883 51.9811 72.1271 51.935 72.7034Z" fill="black"/>
<path d="M52.4722 73.1903C52.4821 73.0106 52.5166 72.8404 52.56 72.6736C52.6019 72.5062 52.658 72.3443 52.7174 72.1837C52.7813 72.0248 52.8482 71.8671 52.9294 71.7148C53.0091 71.562 53.0975 71.4125 53.2102 71.2725L53.2247 71.2781L52.863 72.2398L52.4868 73.1959L52.4722 73.1903Z" fill="black"/>
<path d="M52.476 73.1865C52.5788 73.074 52.6932 72.9851 52.8119 72.9047C52.9299 72.8229 53.0546 72.7549 53.1809 72.6897C53.3093 72.6291 53.4391 72.5713 53.5757 72.5274C53.7116 72.4819 53.8516 72.4447 54.0034 72.4312L54.0102 72.4452L53.2501 72.8299L52.4829 73.2005L52.476 73.1865Z" fill="black"/>
<path d="M53.1608 77.6953C53.2895 77.8039 53.4153 77.9111 53.5559 77.9978C53.6211 78.0471 53.6928 78.0872 53.7603 78.1319C53.8308 78.1725 53.9032 78.2089 53.9736 78.2475C54.261 78.391 54.5649 78.4969 54.8793 78.5223C55.1898 78.5638 55.5113 78.5501 55.8225 78.4677L55.9418 78.4451L56.0571 78.4069L56.2899 78.3296C56.446 78.2765 56.5923 78.1988 56.754 78.1427L56.7626 78.1558C56.6167 78.2379 56.4751 78.3288 56.3255 78.4038L56.094 78.5023L55.9779 78.5509L55.8564 78.5843L55.6133 78.6501L55.3633 78.6829C55.2803 78.6988 55.1958 78.6921 55.1117 78.6926C55.0275 78.6924 54.9432 78.6938 54.8603 78.6774C54.526 78.6382 54.2018 78.5235 53.9125 78.353C53.6242 78.1811 53.3623 77.9642 53.1483 77.705L53.1608 77.6953Z" fill="white"/>
<path d="M71.9581 32.6474C71.8761 32.2274 71.2424 32.4394 71.3238 32.8568C71.6278 34.4144 71.8678 36.0087 71.7425 37.5997C71.6254 39.0852 70.8182 40.3158 69.8834 41.4329C68.9758 42.5175 68.0714 43.5542 67.4821 44.8595C66.9282 46.0864 66.7183 47.5248 66.8789 48.8602C67.0586 50.3546 67.5934 51.7856 67.98 53.2331C68.3884 54.7624 68.4853 56.2457 68.2326 57.8114C68.0212 59.1214 67.4834 60.3305 66.4375 61.1847C65.4087 62.0249 64.1515 62.3701 62.8492 62.0672C61.3316 61.7144 59.9904 60.7478 58.878 59.6906C58.2567 59.1001 57.7101 58.4354 57.2365 57.7211C56.7652 57.0103 56.457 56.2351 56.1414 55.4473C55.9824 55.0507 55.3468 55.2564 55.5071 55.6567C55.794 56.3727 56.0689 57.095 56.4686 57.7578C56.8647 58.4148 57.3408 59.0329 57.8567 59.6002C58.8386 60.6798 60.0493 61.646 61.3808 62.2569C62.6208 62.8259 64.0395 63.0839 65.346 62.5801C66.5005 62.1349 67.4743 61.303 68.1073 60.2415C68.8585 58.9818 69.0529 57.4034 69.0605 55.9602C69.0691 54.3241 68.5352 52.7684 68.095 51.2125C67.6413 49.6092 67.3138 48.0644 67.674 46.4046C68.0067 44.8709 68.9263 43.5572 69.9393 42.3933C70.9913 41.1848 72.1078 39.8109 72.3466 38.1756C72.6153 36.3353 72.3108 34.4546 71.9581 32.6474Z" fill="black"/>
<path d="M71.1489 29.4135L71.2004 31.1896L70.6928 31.2043L70.6414 29.4282C70.6405 29.3938 70.6675 29.3651 70.7019 29.3641L71.0849 29.3531C71.1193 29.3521 71.1479 29.3791 71.1489 29.4135Z" fill="#FFD200"/>
<path d="M70.6171 31.285L70.5632 29.4306C70.5611 29.3532 70.6222 29.2885 70.6994 29.286L71.0824 29.275C71.1548 29.2729 71.2245 29.3342 71.2271 29.4112L71.2809 31.2657L70.6171 31.285ZM70.7199 29.4418L70.7686 31.1242L71.1199 31.1142L71.0713 29.4317L70.7199 29.4418Z" fill="black"/>
<path d="M72.4237 29.3764L72.4751 31.1525L71.9676 31.1672L71.9162 29.3911C71.9153 29.3567 71.9423 29.328 71.9767 29.327L72.3597 29.3159C72.394 29.3149 72.4226 29.342 72.4237 29.3764Z" fill="#FFD200"/>
<path d="M71.8918 31.2479L71.8381 29.3936C71.837 29.3562 71.8504 29.3204 71.8762 29.2931C71.9018 29.2657 71.9367 29.2503 71.9742 29.249L72.3572 29.2379C72.4333 29.2345 72.4994 29.2972 72.5019 29.3742V29.3743L72.5556 31.2287L71.8918 31.2479ZM71.9948 29.4048L72.0436 31.0871L72.3948 31.0771L72.3461 29.3947L71.9948 29.4048Z" fill="black"/>
<path d="M70.084 30.6949L70.1595 33.2959L73.0019 33.2134L72.9264 30.6124L70.084 30.6949Z" fill="black"/>
<path d="M70.0859 33.379L70.0059 30.6217L73.0046 30.5347L73.0846 33.2919L70.0859 33.379ZM70.1669 30.7734L70.2377 33.2182L72.9237 33.1403L72.8529 30.6956L70.1669 30.7734Z" fill="black"/>
<path d="M67.2707 45.5021C67.3085 46.259 66.7288 46.8997 65.9753 46.9373C65.942 46.939 65.9086 46.9406 65.8751 46.939C65.8719 46.9392 65.8719 46.9392 65.8719 46.9392C65.6676 46.9326 65.4745 46.8822 65.2998 46.7973C65.2004 46.7487 65.1071 46.6867 65.0232 46.6139C64.7441 46.3804 64.5596 46.0319 64.5399 45.6385C64.5225 45.2917 64.6368 44.9684 64.8415 44.7175C65.074 44.4217 65.432 44.2266 65.8389 44.2063C66.5924 44.1687 67.2331 44.7484 67.2707 45.5021Z" fill="#FFD200"/>
<path d="M65.9041 47.0177C65.8933 47.0177 65.8822 47.0175 65.8712 47.0169C65.6595 47.0105 65.4564 46.96 65.2656 46.8675C65.1602 46.8159 65.0615 46.7504 64.9719 46.6726C64.6683 46.4189 64.4819 46.043 64.4619 45.6424C64.4441 45.2881 64.5574 44.9422 64.7808 44.6679C65.034 44.346 65.4184 44.1491 65.8348 44.1284C66.2206 44.1088 66.5897 44.2409 66.8757 44.4995C67.1615 44.7581 67.3295 45.1128 67.3487 45.498C67.3885 46.2949 66.7741 46.9756 65.9791 47.0153C65.9542 47.0166 65.9292 47.0177 65.9041 47.0177ZM65.9078 44.2827C65.8861 44.2827 65.8645 44.2832 65.8428 44.2843C65.4714 44.3029 65.1288 44.4782 64.9027 44.7656C64.703 45.0108 64.6021 45.3191 64.6179 45.6344C64.6357 45.9916 64.8018 46.3268 65.0732 46.5537C65.1537 46.6236 65.2409 46.6814 65.334 46.7268C65.5046 46.8097 65.6865 46.8548 65.8742 46.8608C65.9098 46.8628 65.9408 46.8606 65.9712 46.859C66.6804 46.8234 67.2284 46.2165 67.1928 45.5057C67.1584 44.8186 66.5883 44.2827 65.9078 44.2827Z" fill="black"/>
<path d="M71.68 55.3946C71.7178 56.1516 71.138 56.7922 70.3845 56.8299C70.3513 56.8316 70.3178 56.8332 70.2844 56.8316C70.2811 56.8318 70.2811 56.8318 70.2811 56.8318C70.0769 56.8252 69.8839 56.7747 69.709 56.6899C69.6096 56.6413 69.5163 56.5793 69.4324 56.5064C69.1533 56.273 68.9688 55.9245 68.9491 55.5311C68.9318 55.1843 69.046 54.861 69.2507 54.61C69.4832 54.3142 69.8412 54.1192 70.2481 54.0989C71.0016 54.0612 71.6423 54.641 71.68 55.3946Z" fill="#FFD200"/>
<path d="M70.3131 56.9103C70.3022 56.9103 70.2911 56.9101 70.2801 56.9095C70.0686 56.9032 69.8654 56.8528 69.6746 56.7599C69.5695 56.7087 69.4707 56.6432 69.3812 56.5655C69.0772 56.3113 68.8908 55.9355 68.8708 55.535C68.8532 55.1803 68.9664 54.8345 69.1899 54.5607C69.4429 54.239 69.8275 54.0419 70.2439 54.021C70.632 54.0013 70.9988 54.1336 71.2848 54.3921C71.5706 54.6507 71.7385 55.0054 71.7576 55.3909C71.777 55.7777 71.6453 56.1482 71.3866 56.4344C71.1282 56.7207 70.7736 56.8888 70.388 56.9079C70.3634 56.9092 70.3384 56.9103 70.3131 56.9103ZM70.3176 54.1754C70.2958 54.1754 70.2739 54.1758 70.2519 54.1769C69.8806 54.1957 69.5381 54.3711 69.3119 54.6584C69.1122 54.9032 69.0111 55.2114 69.0269 55.5272C69.0447 55.8841 69.2108 56.2193 69.4826 56.4465C69.5631 56.5162 69.6502 56.5741 69.7432 56.6195C69.9139 56.7024 70.0958 56.7476 70.2834 56.7535C70.3191 56.7554 70.35 56.7534 70.3805 56.7518C70.7242 56.7346 71.0405 56.5848 71.2708 56.3296C71.5016 56.0743 71.619 55.7436 71.6018 55.3986V55.3984C71.5846 55.055 71.4349 54.7385 71.1799 54.508C70.9414 54.2921 70.6374 54.1754 70.3176 54.1754Z" fill="black"/>
<path d="M64.576 60.7735C64.6138 61.5305 64.034 62.1711 63.2805 62.2088C63.2473 62.2105 63.2138 62.2121 63.1804 62.2105C63.1771 62.2107 63.1771 62.2107 63.1771 62.2107C62.9729 62.2041 62.7797 62.1536 62.605 62.0688C62.5056 62.0203 62.4123 61.9581 62.3284 61.8853C62.0493 61.6519 61.8648 61.3034 61.8451 60.9099C61.8278 60.5632 61.942 60.2399 62.1467 59.9889C62.3792 59.6931 62.7372 59.4981 63.1441 59.4778C63.8976 59.4403 64.5383 60.02 64.576 60.7735Z" fill="#FFD200"/>
<path d="M63.2091 62.2891C63.1982 62.2891 63.1871 62.289 63.1761 62.2884C62.9649 62.2821 62.7617 62.2318 62.5706 62.139C62.4656 62.0876 62.3669 62.0222 62.277 61.9444C61.9732 61.6902 61.7868 61.3142 61.7668 60.9139C61.7491 60.5592 61.8624 60.2133 62.0859 59.9396C62.3389 59.6178 62.7234 59.4208 63.1399 59.3998C63.527 59.3803 63.8949 59.5125 64.1808 59.771C64.4666 60.0296 64.6345 60.3843 64.6536 60.7698V60.7696C64.673 61.1565 64.5412 61.527 64.2826 61.8133C64.0242 62.0996 63.6696 62.2677 63.284 62.2868C63.2593 62.288 63.2343 62.2891 63.2091 62.2891ZM63.2136 59.5542C63.1918 59.5542 63.1699 59.5547 63.1479 59.5558C62.7766 59.5745 62.434 59.75 62.2079 60.0372C62.0082 60.2821 61.9071 60.5903 61.9229 60.9062C61.9407 61.2631 62.1068 61.5983 62.3784 61.8255C62.4591 61.8952 62.5464 61.9532 62.6392 61.9985C62.8102 62.0815 62.9919 62.1266 63.1793 62.1324C63.215 62.134 63.2457 62.1323 63.2763 62.1307C63.6202 62.1135 63.9365 61.9636 64.1668 61.7085C64.3976 61.4531 64.5152 61.1225 64.4978 60.7775V60.7773C64.4806 60.4338 64.3309 60.1174 64.0759 59.8869C63.8374 59.671 63.5334 59.5542 63.2136 59.5542Z" fill="black"/>
<path d="M62.4439 68.0352C57.8679 67.3713 53.0763 66.5411 48.0905 65.5067C41.007 64.0322 34.4168 62.3291 28.356 60.516L31.5694 59.3291L22.7976 57.7853C24.1475 57.574 26.1135 57.449 27.25 57.1115C24.3601 56.4736 21.006 55.5148 17.3898 54.0575C13.0913 52.3267 9.52871 50.3353 6.71301 48.5072C8.21157 48.1248 10.0848 47.4829 12.0817 46.3703C13.2688 45.7093 14.2767 45.0071 15.1095 44.347C12.6615 44.5931 10.2102 44.8392 7.75888 45.0888C10.2813 43.7895 13.0721 42.1757 15.9966 40.1609C16.0224 40.1429 16.0516 40.1246 16.0774 40.1067C16.2324 39.9987 16.3875 39.8906 16.5458 39.7824C16.6654 39.6996 16.7816 39.6169 16.901 39.5307C17.1723 39.34 17.4434 39.146 17.7144 38.9485C20.8526 36.6623 23.512 34.3565 25.7252 32.2203C23.7411 31.9851 21.7572 31.7501 19.7731 31.5149C22.3755 30.2784 25.1795 28.7944 28.0993 27.0172C28.7513 26.6203 29.3867 26.2242 30.005 25.8222C30.1865 25.7061 30.3679 25.5902 30.5491 25.4708C30.5557 25.4672 30.5588 25.4636 30.5654 25.46C30.8404 25.2791 31.1156 25.0983 31.3841 24.9176C32.2768 24.3181 33.1393 23.72 33.9655 23.1272C34.0366 23.0769 34.1074 23.0231 34.1785 22.9728C34.3849 22.8222 34.5848 22.6751 34.7846 22.5281C34.8201 22.5029 34.8523 22.4779 34.8878 22.4528C35.7839 21.7896 36.6403 21.1317 37.4503 20.4862C35.5513 20.2101 33.6553 19.9338 31.7564 19.661C34.4515 18.8076 37.4597 17.6644 40.6446 16.1113C42.6743 15.1208 44.5149 14.0927 46.169 13.074C44.8056 12.9482 43.4453 12.8225 42.0819 12.6967C43.991 12.0999 46.008 11.3906 48.1051 10.5437C48.8751 10.2344 49.6247 9.91613 50.3543 9.59892L50.3542 9.59564C52.8042 8.52055 55.0411 7.39577 57.0578 6.27881C56.9986 6.36538 55.5471 8.49039 54.9656 13.109C54.7117 15.1173 54.625 17.5953 54.8844 20.5809C54.1924 19.1781 53.4974 17.7754 52.8022 16.3727C53.1302 18.6562 53.6402 21.2347 54.4442 24.0126C54.4485 24.0324 54.4531 24.0555 54.4607 24.0752C54.509 24.2399 54.5575 24.4046 54.6056 24.5661L54.6057 24.5693C54.6137 24.5957 54.6218 24.6253 54.63 24.6517C54.7183 24.9481 54.8095 25.2344 54.9009 25.5239C55.8607 28.5414 56.9472 30.8169 58.0298 33.0159C56.8308 31.5649 55.6624 30.46 54.4632 29.0056C54.8762 31.385 55.4288 33.9448 56.169 36.6489C57.2317 40.5236 58.4842 43.9776 59.7573 46.9794C58.3487 45.6157 56.94 44.252 55.5314 42.8885C55.6896 43.9803 55.8877 45.1338 56.1318 46.3383C56.2335 46.8346 56.3423 47.3407 56.4617 47.8562C56.4964 48.015 56.5343 48.1736 56.5725 48.3353C56.5772 48.3619 56.5851 48.3881 56.59 48.418C56.6487 48.6556 56.7075 48.8968 56.7698 49.141C56.7701 49.1477 56.7737 49.1508 56.774 49.1575C56.9252 49.7718 57.0902 50.3986 57.2691 51.0349C57.6391 52.3536 58.0396 53.6104 58.4565 54.7964C58.4686 54.836 58.4837 54.8719 58.4958 54.9114C58.5584 55.0955 58.6209 55.2763 58.6867 55.4535C58.7411 55.6046 58.7953 55.7556 58.8531 55.9065C59.3871 57.3607 59.9424 58.7069 60.4987 59.9392C59.1358 58.8875 57.7727 57.8325 56.4129 56.7772C56.8551 58.4031 57.5608 60.417 58.7126 62.5958C59.9343 64.908 61.2914 66.7121 62.4439 68.0352Z" fill="#006658"/>
<path d="M62.6412 68.1425L62.4328 68.1123C57.6523 67.4186 52.8216 66.5678 48.0748 65.5827C41.4163 64.1968 34.7745 62.5172 28.3337 60.5906L28.1094 60.5234L31.2711 59.3557L22.3211 57.7802L22.7856 57.7076C23.2437 57.6358 23.7634 57.5752 24.3138 57.5108C25.2417 57.4025 26.1974 57.2908 26.9212 57.1175C23.6758 56.3837 20.4611 55.3789 17.3606 54.1295C13.6384 52.6307 10.0417 50.7611 6.67036 48.5721L6.52081 48.4751L6.69364 48.431C8.56488 47.9535 10.3647 47.237 12.0438 46.3015C13.0206 45.7577 13.9631 45.1358 14.8488 44.4512L14.7358 44.4626C12.4147 44.6957 10.0905 44.9292 7.76669 45.1658L7.35619 45.2075L7.7231 45.0186C10.5741 43.5499 13.3429 41.8936 15.9523 40.0958L16.033 40.0418C16.1882 39.9338 16.3433 39.8255 16.5019 39.7172C16.6207 39.635 16.7365 39.5525 16.8554 39.4666C17.1271 39.2756 17.3979 39.0818 17.6683 38.8845C20.4358 36.8687 23.0875 34.6463 25.552 32.2775L19.4948 31.5597L19.7395 31.4436C22.5718 30.0978 25.3706 28.5858 28.0586 26.9496C28.7718 26.5154 29.3947 26.1249 29.9625 25.7558C30.1441 25.6397 30.3252 25.5239 30.5062 25.4047C30.5157 25.3979 30.5205 25.3948 30.5266 25.3911C30.7973 25.2129 31.0723 25.0323 31.3405 24.8518C32.2347 24.2513 33.1025 23.6495 33.9199 23.0629C33.9555 23.0377 33.9905 23.012 34.0258 22.9862C34.0615 22.9599 34.0974 22.9337 34.1333 22.9082C34.3388 22.7584 34.5387 22.6113 34.7385 22.4643L34.8428 22.3882C35.6706 21.7755 36.4837 21.1529 37.2605 20.5365L36.5096 20.4274C34.9212 20.1963 33.3345 19.9656 31.7455 19.7373L31.4069 19.6892L31.7327 19.5861C34.7739 18.6232 37.7607 17.4303 40.6104 16.0408C42.4312 15.152 44.2191 14.1734 45.9277 13.1299L41.6858 12.7383L42.0585 12.6218C44.089 11.987 46.1134 11.2635 48.0757 10.471C48.742 10.2034 49.4424 9.90935 50.2768 9.54729L50.3228 9.52385C52.6062 8.52174 54.8595 7.40681 57.0199 6.21015L57.3086 6.05029L57.1224 6.32266C56.9689 6.54705 55.6066 8.64316 55.0431 13.1187C54.7564 15.3857 54.7292 17.8941 54.9622 20.574L54.9981 20.9881L54.8142 20.6151C54.1953 19.3604 53.5735 18.1055 52.9517 16.8507C53.3211 19.2723 53.8479 21.6719 54.519 23.9905C54.5247 24.0163 54.5279 24.0327 54.5333 24.0466C54.5837 24.2175 54.6322 24.3821 54.6803 24.5435L54.7044 24.6283C54.783 24.8918 54.8633 25.1467 54.9444 25.4029L54.975 25.5003C55.9168 28.4612 56.9903 30.7285 58.0995 32.9812L58.3943 33.5798L57.9692 33.0654C57.3741 32.3455 56.7764 31.6997 56.1982 31.0751C55.6732 30.5079 55.1322 29.9233 54.5904 29.2806C55.0274 31.7439 55.5833 34.2143 56.2439 36.6282C57.2067 40.1388 58.4129 43.611 59.8287 46.9487L59.9792 47.3033L55.6416 43.1044C55.7993 44.1633 55.9895 45.245 56.2078 46.3227C56.3196 46.8681 56.4273 47.3641 56.5372 47.8386C56.5656 47.9688 56.5961 48.0979 56.627 48.2288L56.648 48.3174C56.6508 48.3326 56.6533 48.3431 56.6559 48.3538C56.6597 48.3704 56.6637 48.3876 56.6665 48.4057L56.7036 48.5546C56.7497 48.7415 56.7962 48.9306 56.8448 49.1217L56.8461 49.1264C56.8484 49.1328 56.8508 49.1423 56.8512 49.1539C57.0008 49.7554 57.1672 50.386 57.3435 51.0134C57.6977 52.2757 58.0967 53.5397 58.5295 54.7701C58.5362 54.792 58.5425 54.8095 58.5489 54.8272C58.5561 54.8473 58.5634 54.8675 58.5697 54.8886C58.6314 55.0695 58.6937 55.2495 58.7591 55.4261C58.8136 55.5774 58.8675 55.728 58.9252 55.8785C59.4304 57.2542 59.9834 58.6093 60.569 59.907L60.6977 60.192L60.45 60.0009C59.1492 58.997 57.8482 57.9902 56.5501 56.9831C57.0905 58.9055 57.8405 60.7803 58.7809 62.5592C59.8085 64.5039 61.0607 66.329 62.5022 67.9839L62.6412 68.1425ZM28.6029 60.5079C34.9693 62.4053 41.5297 64.0609 48.1065 65.4299C52.7816 66.4 57.538 67.2399 62.2476 67.9273C60.8559 66.3057 59.6438 64.5251 58.6433 62.6319C57.6605 60.773 56.8847 58.8101 56.3372 56.7973L56.2757 56.5718L56.4604 56.7153C57.7382 57.7069 59.0191 58.6983 60.2998 59.6871C59.7596 58.4726 59.2486 57.2114 58.7794 55.9334C58.7219 55.7829 58.6672 55.6313 58.6128 55.4797C58.5472 55.3027 58.4845 55.1213 58.4214 54.9364C58.415 54.9153 58.4087 54.8978 58.4023 54.8801C58.3951 54.86 58.3878 54.8398 58.3815 54.8187C57.9487 53.5885 57.5486 52.3213 57.1935 51.0558C57.0166 50.4268 56.8498 49.7943 56.6978 49.1761C56.697 49.1734 56.6942 49.1661 56.6926 49.1555C56.6442 48.9656 56.5981 48.7778 56.5522 48.5921L56.5139 48.4368C56.5103 48.4159 56.5072 48.4026 56.5042 48.3896C56.5008 48.3757 56.4978 48.3621 56.4954 48.3485L56.4754 48.2648C56.4442 48.1329 56.4134 48.0029 56.3851 47.8727C56.2753 47.3978 56.167 46.9006 56.0549 46.3538C55.8204 45.1959 55.6183 44.0336 55.454 42.8993L55.4211 42.6729L59.5365 46.6568C58.182 43.4211 57.0244 40.0633 56.0934 36.6693C55.4057 34.1565 54.8312 31.5825 54.3862 29.0189L54.3357 28.728L54.5234 28.9557C55.1249 29.6852 55.729 30.3379 56.3132 30.9692C56.7606 31.4526 57.22 31.9488 57.6813 32.4827C56.6684 30.4069 55.6923 28.2704 54.8262 25.5476L54.7955 25.4501C54.7142 25.1931 54.6336 24.9376 54.555 24.6738L54.5279 24.5791C54.4806 24.4205 54.4331 24.2589 54.3857 24.097C54.3795 24.0817 54.3739 24.0569 54.3692 24.0345C53.6508 21.5523 53.0975 18.9785 52.7248 16.3838L52.6554 15.9006L52.8723 16.338C53.5068 17.6179 54.1412 18.8982 54.7731 20.1781C54.5762 17.6409 54.6148 15.2613 54.8883 13.0991C55.3652 9.31024 56.4157 7.20445 56.8325 6.49205C54.7639 7.62761 52.6133 8.68769 50.4348 9.64558L50.435 9.64574L50.3857 9.67058C49.5296 10.0426 48.814 10.3431 48.1345 10.6161C46.2878 11.3618 44.3857 12.0469 42.4756 12.6544L46.4096 13.0176L46.2102 13.1404C44.4368 14.2325 42.576 15.2556 40.6793 16.1813C37.924 17.525 35.0404 18.6849 32.1041 19.6317C33.5806 19.8442 35.0558 20.0588 36.5321 20.2733L37.6405 20.4344L37.4994 20.5469C36.6785 21.2012 35.8158 21.8634 34.9347 22.5155L34.8303 22.5915C34.6312 22.738 34.4312 22.8851 34.2248 23.0359C34.1887 23.0613 34.1537 23.0871 34.1183 23.1129C34.0826 23.1392 34.0468 23.1654 34.0108 23.1909C33.1925 23.7781 32.3233 24.3808 31.4278 24.9823C31.1592 25.1631 30.884 25.344 30.6085 25.5251C30.5993 25.5315 30.5943 25.535 30.5876 25.5389C30.411 25.6556 30.2293 25.7717 30.0475 25.8878C29.4789 26.2575 28.8548 26.6488 28.1402 27.0837C25.525 28.6759 22.8046 30.1503 20.0508 31.469L25.8981 32.1621L25.7797 32.2763C23.2764 34.6931 20.5783 36.959 17.7606 39.0117C17.4895 39.2094 17.2181 39.4037 16.9463 39.5945C16.8274 39.6805 16.7107 39.7635 16.591 39.8466C16.4322 39.9549 16.2774 40.0629 16.1227 40.1707L16.0417 40.2249C13.5376 41.95 10.8876 43.5449 8.15876 44.9693C10.3469 44.747 12.535 44.5271 14.7205 44.3076L15.3675 44.2426L15.1584 44.4082C14.2049 45.1639 13.1826 45.8469 12.1202 46.4384C10.4811 47.3519 8.7274 48.0577 6.90506 48.5382C10.2249 50.6801 13.7614 52.5123 17.4193 53.9849C20.6113 55.2714 23.9246 56.2974 27.2672 57.0352L27.5623 57.1003L27.2726 57.1864C26.5141 57.4116 25.405 57.5413 24.3326 57.6665C23.9699 57.709 23.6203 57.7496 23.2937 57.7932L31.8682 59.3024L28.6029 60.5079Z" fill="black"/>
<path d="M45.2693 20.7892C45.193 20.7892 45.1233 20.7742 45.0627 20.7409C44.6322 20.5048 44.7602 19.6786 44.8722 19.2144C44.5434 19.5349 43.9137 20.0302 43.428 19.6986C43.3305 19.6319 43.2732 19.5343 43.2574 19.4083C43.1755 18.7443 44.3526 17.4086 44.4028 17.3521L44.5197 17.4558C44.191 17.8263 43.3514 18.8961 43.4125 19.3892C43.4224 19.4699 43.4563 19.5289 43.5161 19.5696C44.0732 19.9507 44.963 18.8906 44.9719 18.8798L45.23 18.5687L45.1063 18.9537C44.9822 19.34 44.7459 20.3892 45.1375 20.604C45.534 20.8215 46.64 19.8777 47.0328 19.4955L47.1417 19.6075C47.0053 19.7404 45.9073 20.7892 45.2693 20.7892Z" fill="black"/>
<path d="M49.3379 31.2963C49.2908 31.2963 49.2458 31.2891 49.2035 31.2734C48.7425 31.1044 48.7453 30.2684 48.7867 29.7924C48.5098 30.1584 47.961 30.742 47.4313 30.4871C47.3247 30.4359 47.2533 30.3479 47.2193 30.2257C47.0388 29.5816 48.0029 28.0844 48.0439 28.021L48.1751 28.1062C47.9056 28.5217 47.2355 29.705 47.3697 30.1837C47.3918 30.2618 47.434 30.3151 47.4991 30.3465C48.1082 30.639 48.8281 29.4585 48.8355 29.4466L49.0441 29.1008L48.9794 29.4994C48.9146 29.8997 48.838 30.973 49.2572 31.1266C49.6843 31.2831 50.6341 30.1835 50.9653 29.7469L51.0899 29.8413C50.9697 29.9996 49.9674 31.2963 49.3379 31.2963Z" fill="black"/>
<path d="M48.1509 51.5217C48.1495 51.5217 48.1481 51.5217 48.1468 51.5217C47.6558 51.5159 47.38 50.7268 47.2603 50.2644C47.1211 50.7018 46.8002 51.4351 46.214 51.3712C46.0965 51.3584 46.0001 51.2992 45.927 51.1954C45.5421 50.6483 45.9521 48.9152 45.9696 48.8418L46.1217 48.8782C46.0062 49.36 45.7688 50.6991 46.0548 51.1056C46.1015 51.172 46.1592 51.2079 46.231 51.2159C46.8978 51.2925 47.1883 49.9359 47.191 49.9222L47.2724 49.5261L47.3444 49.9241C47.4166 50.3233 47.7019 51.3603 48.1487 51.3656C48.1496 51.3656 48.1506 51.3656 48.1514 51.3656C48.6034 51.3656 49.133 50.0164 49.2993 49.4954L49.4482 49.5431C49.3833 49.7458 48.798 51.5217 48.1509 51.5217Z" fill="black"/>
<path d="M23.4888 42.0855C23.438 42.0855 23.3897 42.0772 23.3445 42.0597C22.8875 41.8806 22.9084 41.0449 22.96 40.5701C22.6754 40.9298 22.1143 41.5022 21.59 41.2353C21.4847 41.1817 21.4153 41.0923 21.3837 40.9693C21.2172 40.3214 22.2137 38.8457 22.2562 38.7832L22.3852 38.871C22.1069 39.2806 21.4114 40.4493 21.535 40.9306C21.5553 41.0092 21.5966 41.0634 21.661 41.096C22.2632 41.4015 23.0089 40.2371 23.0164 40.2254L23.2325 39.8844L23.1592 40.2813C23.0856 40.6802 22.9859 41.7513 23.4019 41.9141C23.8222 42.0797 24.7989 41.001 25.1394 40.5718L25.2617 40.6688C25.1389 40.8237 24.119 42.0855 23.4888 42.0855Z" fill="black"/>
<path d="M33.0853 58.1169C33.0347 58.1169 32.9864 58.1086 32.9412 58.0911C32.484 57.9119 32.5051 57.0764 32.5567 56.6016C32.2721 56.9615 31.7108 57.5337 31.1866 57.2667C31.0811 57.2131 31.0117 57.1237 30.9802 57.0007C30.8137 56.3529 31.8101 54.877 31.8526 54.8145L31.9816 54.9023C31.7033 55.3118 31.0078 56.4805 31.1316 56.9618C31.1517 57.0406 31.193 57.0948 31.2575 57.1276C31.8598 57.4333 32.6056 56.2686 32.6129 56.2569L32.8292 55.9158L32.7558 56.3129C32.6822 56.7118 32.5823 57.7827 32.9984 57.9456C33.4171 58.1107 34.3953 57.0324 34.7359 56.6032L34.8583 56.7002C34.7356 56.8549 33.7154 58.1169 33.0853 58.1169Z" fill="black"/>
<path d="M51.9573 62.5621C51.9553 62.5621 51.9536 62.5621 51.9515 62.5621C51.4604 62.554 51.1883 61.7635 51.071 61.3004C50.9297 61.7369 50.6003 62.4677 50.0193 62.4023C49.9018 62.3888 49.8056 62.3291 49.7331 62.2249C49.3509 61.6758 49.7695 59.945 49.7874 59.8716L49.9392 59.9088C49.8212 60.3899 49.5774 61.7278 49.8614 62.1355C49.9078 62.2022 49.9653 62.2385 50.0372 62.2468C50.7092 62.3229 51.0005 60.9712 51.0035 60.9576L51.0869 60.5627L51.1568 60.9603C51.2271 61.36 51.5074 62.3985 51.9542 62.4059C51.9556 62.4059 51.9568 62.4059 51.9579 62.4059C52.4097 62.4059 52.945 61.0612 53.1138 60.5413L53.2624 60.5896C53.1965 60.792 52.6033 62.562 51.9573 62.5621Z" fill="black"/>
<path d="M59.4766 5.30274L61.0494 0.710024L57.1473 3.54416L53.1848 0.414062L55.2058 5.01599L50.473 7.80215L54.7185 7.52369C53.3489 8.22422 51.8936 8.91943 50.3541 9.59511L50.3543 9.59839C50.7013 10.1894 51.2508 10.9476 52.0941 11.6375C53.1434 12.501 54.2201 12.9085 54.9656 13.1085C55.2339 10.9771 55.6871 9.38291 56.1037 8.26891L56.6617 12.6641L58.3673 7.71387L63.1981 8.28094L59.4766 5.30274Z" fill="#FFD200"/>
<path d="M55.0319 13.2072L54.9451 13.1839C53.8668 12.8944 52.8909 12.3943 52.0443 11.6977C51.3445 11.1255 50.7531 10.4323 50.2866 9.63787L50.277 9.62131L50.2737 9.54833L50.3224 9.52349C51.6744 8.93016 53.0255 8.29276 54.3434 7.62646L50.1496 7.90148L55.1061 4.98375L52.9872 0.158203L57.1492 3.44597L61.2033 0.501512L59.5683 5.27596L63.4597 8.39043L58.4206 7.79897L56.6265 13.0066L56.0669 8.59951C55.5966 9.9368 55.2525 11.455 55.0431 13.1185L55.0319 13.2072ZM50.4649 9.63177C50.9151 10.3796 51.4794 11.0339 52.1435 11.5771C52.9501 12.2407 53.8769 12.7223 54.8995 13.0094C55.1277 11.2422 55.5082 9.63865 56.0304 8.24151L56.1413 7.94508L56.697 12.322L58.3138 7.62896L62.9364 8.17166L59.3849 5.32956L60.8953 0.918577L57.1453 3.64223L53.3825 0.669807L55.3055 5.04844L50.7961 7.70271L55.0909 7.42113L54.754 7.59349C53.352 8.31026 51.9094 8.99579 50.4649 9.63177Z" fill="black"/>
<path d="M54.6298 24.6513C53.846 24.8877 53.0505 25.0879 52.2493 25.2449C51.8062 25.3407 51.3622 25.4196 50.9142 25.4856C50.7948 25.5049 50.6753 25.5209 50.5557 25.537C47.4647 25.9589 44.279 25.757 41.2231 25.1443C39.7711 24.8525 38.3018 24.5481 36.889 24.1041C35.9518 23.81 35.05 23.4238 34.1783 22.9726C34.3848 22.8219 34.5846 22.6749 34.7845 22.5278C35.7132 22.9829 36.6748 23.3627 37.6816 23.6432C38.5731 23.8895 39.47 24.112 40.3757 24.3075C40.8115 24.3994 41.2438 24.4847 41.6821 24.5597C41.6854 24.5596 41.6854 24.5596 41.6854 24.5596C43.3113 24.8527 44.9519 25.0382 46.5986 25.0794C49.2661 25.1466 51.8979 24.7644 54.4442 24.012C54.4486 24.0319 54.4531 24.055 54.4608 24.0747C54.509 24.2394 54.5575 24.4041 54.6056 24.5655L54.6058 24.5688C54.6137 24.5952 54.6219 24.6249 54.6298 24.6513Z" fill="black"/>
<path d="M42.6201 23.1945C42.6578 23.9489 42.0768 24.591 41.3224 24.6288C40.5679 24.6665 39.9258 24.0855 39.888 23.3311C39.8504 22.5766 40.4313 21.9346 41.1858 21.8968C41.9404 21.8591 42.5825 22.4401 42.6201 23.1945Z" fill="#FFD200"/>
<path d="M41.2522 24.7086C40.8934 24.7086 40.5523 24.5773 40.2841 24.3348C39.9979 24.0757 39.8296 23.7204 39.8103 23.3349C39.791 22.9491 39.923 22.5789 40.1821 22.2926C40.4412 22.0062 40.7965 21.8379 41.182 21.8187C41.9741 21.7794 42.6585 22.3942 42.6982 23.1903C42.7381 23.9867 42.1226 24.6669 41.3264 24.7066C41.3014 24.708 41.2767 24.7086 41.2522 24.7086ZM41.2548 21.9731C41.2333 21.9731 41.2115 21.9735 41.1898 21.9746C40.8457 21.9918 40.529 22.142 40.2979 22.3975C40.0668 22.653 39.9489 22.983 39.9661 23.3269C39.9833 23.671 40.1335 23.9879 40.389 24.2189C40.6443 24.4501 40.9732 24.5672 41.3183 24.5506C42.0286 24.5151 42.5776 23.9085 42.5421 23.1983C42.5077 22.5098 41.9368 21.9731 41.2548 21.9731Z" fill="black"/>
<path d="M53.1553 26.465C53.193 27.2195 52.612 27.8616 51.8576 27.8994C51.1031 27.937 50.4611 27.356 50.4232 26.6016C50.3856 25.8472 50.9666 25.2051 51.721 25.1673C52.4756 25.1295 53.1177 25.7106 53.1553 26.465Z" fill="#FFD200"/>
<path d="M51.7885 27.9792C51.0242 27.9792 50.384 27.3773 50.3454 26.6055C50.3056 25.8094 50.9211 25.1292 51.7172 25.0893C52.5112 25.0484 53.1936 25.6648 53.2334 26.4612C53.2733 27.2575 52.6578 27.9377 51.8616 27.9774C51.8371 27.9788 51.8127 27.9792 51.7885 27.9792ZM51.79 25.2439C51.7685 25.2439 51.7468 25.2443 51.725 25.2454C51.0147 25.2812 50.4657 25.8877 50.5012 26.5977C50.537 27.3079 51.148 27.8574 51.8535 27.8216C52.5639 27.786 53.1128 27.1795 53.0773 26.4693C53.043 25.7806 52.472 25.2439 51.79 25.2439Z" fill="black"/>
<path d="M58.6862 55.4527C55.6697 55.56 52.6453 55.5774 49.6322 55.4171C46.7229 55.2616 43.8275 54.9183 40.9823 54.3049C40.5634 54.2156 40.144 54.1195 39.7244 54.0168C39.6872 54.0087 39.6534 54.0002 39.6161 53.9888C36.4749 53.2064 33.4523 52.0573 30.5194 50.6928C27.5556 49.3133 24.6897 47.618 22.0341 45.7149C21.8086 45.5524 21.5865 45.3895 21.3643 45.2236C21.083 45.0137 20.8083 44.8001 20.5333 44.5832C20.53 44.5834 20.53 44.5834 20.5299 44.5801C19.7534 43.9604 19.0091 43.3123 18.296 42.6226C17.4912 41.8371 16.7408 41.0021 15.9967 40.1602C16.0225 40.1422 16.0517 40.124 16.0775 40.106C16.2325 39.998 16.3877 39.8899 16.546 39.7817C17.3782 40.7162 18.2203 41.6469 19.1352 42.4971C20.4741 43.7372 21.9176 44.8618 23.4326 45.8793C25.2451 47.0958 27.1265 48.2218 29.0687 49.2245L29.0721 49.2277C29.275 49.3378 29.4806 49.4413 29.6864 49.5446C33.3075 51.3659 37.1321 52.7826 41.0931 53.6477C44.5301 54.3953 48.0305 54.7384 51.5455 54.8401L51.5488 54.84C52.1382 54.8606 52.7237 54.8715 53.3122 54.8756C53.3156 54.8787 53.3155 54.8754 53.3155 54.8754C55.0311 54.89 56.7443 54.8578 58.456 54.7958C58.4681 54.8353 58.4832 54.8712 58.4953 54.9108C58.5581 55.0948 58.6206 55.2755 58.6862 55.4527Z" fill="black"/>
<path d="M31.3539 48.1408C31.3915 48.8952 30.8106 49.5373 30.0561 49.5751C29.3017 49.6128 28.6596 49.0318 28.6218 48.2774C28.5841 47.523 29.1651 46.8809 29.9195 46.8431C30.674 46.8052 31.3162 47.3864 31.3539 48.1408Z" fill="#FFD200"/>
<path d="M29.9869 49.6549C29.2226 49.6549 28.5824 49.053 28.5438 48.2812C28.5244 47.8954 28.6566 47.5253 28.9157 47.2389C29.1748 46.9525 29.5301 46.7842 29.9156 46.765C30.7077 46.7256 31.3921 47.3406 31.4318 48.1368C31.4717 48.9331 30.8562 49.6133 30.06 49.653C30.0356 49.6543 30.0111 49.6549 29.9869 49.6549ZM29.9886 46.9195C29.967 46.9195 29.9453 46.92 29.9236 46.9211C29.5795 46.9383 29.2626 47.0884 29.0316 47.3439C28.8005 47.5994 28.6827 47.9294 28.6997 48.2734C28.7355 48.9837 29.3445 49.5341 30.052 49.4972C30.7624 49.4616 31.3114 48.8551 31.2759 48.1449C31.2414 47.4563 30.6704 46.9195 29.9886 46.9195Z" fill="black"/>
<path d="M41.4025 55.2228C41.4402 55.9773 40.8592 56.6194 40.1048 56.6572C39.3503 56.6948 38.7082 56.1139 38.6704 55.3594C38.6328 54.605 39.2138 53.9629 39.9682 53.9251C40.7226 53.8873 41.3647 54.4684 41.4025 55.2228Z" fill="#FFD200"/>
<path d="M40.0357 56.737C39.2711 56.737 38.631 56.1351 38.5926 55.3635C38.5527 54.5672 39.1683 53.887 39.9643 53.8473C40.7587 53.8048 41.4408 54.4228 41.4805 55.219C41.5203 56.0153 40.9048 56.6955 40.1088 56.7352C40.0843 56.7364 40.0599 56.737 40.0357 56.737ZM40.0371 54.0017C40.0155 54.0017 39.9938 54.0021 39.9721 54.0032C39.2619 54.0389 38.7129 54.6453 38.7484 55.3555C38.784 56.0656 39.3911 56.613 40.1007 56.5792C40.8109 56.5436 41.3598 55.9371 41.3244 55.2269C41.29 54.5384 40.719 54.0017 40.0371 54.0017Z" fill="black"/>
<path d="M53.8177 53.7472C53.8553 54.5017 53.2744 55.1438 52.5199 55.1816C51.7655 55.2192 51.1234 54.6383 51.0856 53.8838C51.0479 53.1294 51.6289 52.4873 52.3834 52.4495C53.1378 52.4118 53.7799 52.9928 53.8177 53.7472Z" fill="#FFD200"/>
<path d="M52.4499 55.2612C52.091 55.2612 51.7497 55.13 51.4816 54.8875C51.1951 54.6284 51.0268 54.2732 51.0076 53.8877C50.9678 53.0914 51.5833 52.4112 52.3795 52.3715C53.1709 52.3313 53.856 52.947 53.8957 53.7432C53.9355 54.5395 53.32 55.2197 52.5238 55.2594C52.499 55.2606 52.4743 55.2612 52.4499 55.2612ZM52.4524 52.5259C52.4309 52.5259 52.4092 52.5263 52.3874 52.5274C51.6771 52.5629 51.1281 53.1695 51.1636 53.8797C51.1808 54.2237 51.3309 54.5404 51.5864 54.7717C51.8418 55.0026 52.1701 55.1197 52.5159 55.1034C53.2262 55.0678 53.7752 54.4613 53.7397 53.7511C53.7052 53.0628 53.1342 52.5259 52.4524 52.5259Z" fill="black"/>
<path d="M21.5441 45.8366C21.5817 46.591 21.0007 47.2331 20.2463 47.2709C19.4919 47.3086 18.8498 46.7276 18.812 45.9732C18.7743 45.2188 19.3553 44.5767 20.1097 44.5389C20.8642 44.501 21.5064 45.0822 21.5441 45.8366Z" fill="#FFD200"/>
<path d="M20.1772 47.3508C19.4126 47.351 18.7726 46.7489 18.7341 45.9773C18.6943 45.1809 19.3098 44.5007 20.1058 44.461C20.9001 44.4187 21.5822 45.0366 21.622 45.8327C21.6414 46.2185 21.5094 46.5887 21.2503 46.875C20.9912 47.1614 20.6358 47.3297 20.2503 47.3489C20.2258 47.3502 20.2014 47.3508 20.1772 47.3508ZM20.1786 44.6154C20.1571 44.6154 20.1353 44.6159 20.1136 44.617C19.4034 44.6526 18.8545 45.2591 18.8899 45.9693C18.9256 46.6795 19.5331 47.2303 20.2422 47.193C20.5863 47.1758 20.9031 47.0256 21.1342 46.7701C21.3654 46.5146 21.4831 46.1846 21.4659 45.8407C21.4315 45.1523 20.8605 44.6154 20.1786 44.6154Z" fill="black"/>
<path d="M56.5898 48.4174C56.6485 48.6551 56.7073 48.8962 56.7696 49.1404C55.3155 48.6048 53.9221 47.9457 52.5617 47.2114C51.2012 46.4771 49.8716 45.6911 48.5791 44.8465C47.9989 44.4743 47.4281 44.0883 46.8665 43.6886C44.1575 41.7883 41.6267 39.6415 39.3178 37.2532C35.8984 33.7169 32.927 29.7739 30.005 25.8217C30.1864 25.7056 30.3678 25.5896 30.5491 25.4703C30.5557 25.4667 30.5588 25.4631 30.5654 25.4595C32.0136 27.4162 33.4715 29.3657 35.0004 31.2615C36.7355 33.4078 38.5097 35.5287 40.4721 37.4731C42.3783 39.3634 44.4387 41.1257 46.6038 42.7124C48.8387 44.3557 51.2472 45.7931 53.7108 47.0639C54.5617 47.4994 55.43 47.8872 56.3132 48.2341C56.3985 48.2699 56.4871 48.3022 56.5723 48.3349C56.77 48.4119 56.9642 48.4858 57.1619 48.5594C56.9575 48.5527 56.7645 48.5023 56.5898 48.4174Z" fill="black"/>
<path d="M48.5873 44.9416C48.6249 45.696 48.044 46.3381 47.2895 46.3759C46.5351 46.4136 45.893 45.8326 45.8552 45.0782C45.8175 44.3237 46.3985 43.6816 47.1529 43.6438C47.9074 43.6062 48.5496 44.1871 48.5873 44.9416Z" fill="#FFD200"/>
<path d="M47.2195 46.4556C46.8606 46.4556 46.5192 46.3245 46.2512 46.0818C45.9647 45.8227 45.7964 45.4675 45.7772 45.0819C45.7374 44.2856 46.3529 43.6054 47.149 43.5657C47.5374 43.5472 47.905 43.6785 48.1913 43.9376C48.4778 44.1967 48.646 44.5518 48.6653 44.9373C48.7051 45.7337 48.0896 46.4139 47.2934 46.4536C47.2687 46.455 47.2441 46.4556 47.2195 46.4556ZM47.2228 43.7202C47.2009 43.7202 47.1791 43.7207 47.157 43.7218C46.4466 43.7574 45.8977 44.3639 45.9332 45.0741C45.9504 45.4182 46.1005 45.7349 46.356 45.966C46.6115 46.197 46.9415 46.3135 47.2855 46.2978C47.9958 46.2623 48.5448 45.6557 48.5093 44.9455C48.4921 44.6014 48.342 44.2848 48.0865 44.0535C47.8474 43.8373 47.543 43.7202 47.2228 43.7202Z" fill="black"/>
<path d="M58.5608 47.1222C58.5986 47.8791 58.0188 48.5198 57.2653 48.5574C57.2321 48.5591 57.1986 48.5607 57.1652 48.5591C57.1619 48.5593 57.1619 48.5593 57.1619 48.5593C56.9577 48.5527 56.7645 48.5023 56.5898 48.4174C56.4904 48.3688 56.3971 48.3068 56.3132 48.234C56.0341 48.0005 55.8496 47.652 55.8299 47.2586C55.8126 46.9118 55.9268 46.5885 56.1315 46.3376C56.364 46.0418 56.722 45.8467 57.1289 45.8264C57.8824 45.7889 58.5231 46.3687 58.5608 47.1222Z" fill="#FFD200"/>
<path d="M57.1941 48.6377C57.1831 48.6377 57.172 48.6376 57.1611 48.637C56.9495 48.6307 56.7464 48.5804 56.5554 48.4877C56.4499 48.436 56.3513 48.3705 56.262 48.293C55.9582 48.039 55.7718 47.663 55.7518 47.2625C55.7339 46.9081 55.8472 46.5623 56.0707 46.2882C56.3237 45.9664 56.7082 45.7694 57.1247 45.7485C57.9227 45.7081 58.599 46.3232 58.6387 47.1183C58.6581 47.5052 58.5264 47.8758 58.2677 48.1619C58.0093 48.4482 57.6546 48.6163 57.2689 48.6354C57.2442 48.6367 57.2191 48.6377 57.1941 48.6377ZM57.1975 45.9028C57.1759 45.9028 57.1545 45.9033 57.1327 45.9044C56.7614 45.9232 56.4188 46.0986 56.1927 46.3858C55.993 46.6309 55.8921 46.9392 55.9079 47.2547C55.9257 47.6119 56.0918 47.9471 56.3634 48.1741C56.4437 48.2438 56.5309 48.3016 56.624 48.3473C56.7948 48.4301 56.9765 48.4752 57.1642 48.4812C57.2002 48.483 57.2308 48.481 57.2613 48.4795C57.605 48.4623 57.9215 48.3124 58.1518 48.0572C58.3826 47.8019 58.4999 47.4712 58.4828 47.1262C58.4484 46.4387 57.8782 45.9028 57.1975 45.9028Z" fill="black"/>
<path d="M37.5896 44.7152C37.5806 44.7172 37.5733 44.7166 37.5644 44.7186C34.8257 44.9672 32.1288 43.7798 30.256 41.8048C29.5883 41.1015 28.9371 40.2058 28.4802 39.2318C27.7633 37.717 27.5237 36.0137 28.451 34.5631C29.314 33.2218 30.5871 33.4757 31.7921 34.2076C32.8546 34.8547 33.8674 35.8765 34.4896 36.5055C35.0325 37.0468 35.6056 37.5457 36.2871 37.9015C37.3838 38.4817 38.6446 38.5713 39.7557 39.0915C39.9751 39.1938 40.2152 39.3243 40.4537 39.4884C41.1456 39.9503 41.8368 40.6222 42.029 41.3391C42.5928 43.486 39.1291 44.5727 37.5896 44.7152Z" fill="black"/>
<path d="M36.8537 44.8278C34.4301 44.8278 31.9913 43.7485 30.1991 41.8585C29.4686 41.0891 28.8331 40.1681 28.4093 39.2649C27.8161 38.0117 27.3303 36.1711 28.3851 34.5211C29.1447 33.3404 30.3048 33.213 31.8325 34.1409C32.9087 34.7963 33.933 35.8318 34.5449 36.4506C34.9892 36.8935 35.593 37.451 36.3232 37.8323C36.899 38.137 37.5344 38.3084 38.1491 38.4741C38.6964 38.6216 39.2624 38.7742 39.7886 39.0207C40.0418 39.1388 40.2803 39.2744 40.4978 39.424C40.8994 39.6921 41.8618 40.4148 42.1043 41.319C42.2463 41.8601 42.152 42.372 41.8235 42.8413C40.9737 44.055 38.7861 44.6814 37.6021 44.7922L37.5835 44.7947C37.341 44.8168 37.0972 44.8278 36.8537 44.8278ZM37.5572 44.641L37.5832 44.7163L37.5733 44.6389L37.5824 44.6374C38.8225 44.5227 40.9186 43.8617 41.6955 42.7517C41.9963 42.322 42.0831 41.8535 41.9532 41.3593C41.7246 40.5067 40.7978 39.8124 40.4101 39.5535C40.1988 39.4082 39.9679 39.2769 39.7225 39.1624C39.2084 38.9217 38.6492 38.7708 38.1084 38.6252C37.4855 38.4572 36.8415 38.2834 36.2506 37.9707C35.5021 37.5798 34.8865 37.0119 34.4343 36.5611C33.8269 35.947 32.8111 34.9199 31.7513 34.2745C30.2896 33.3866 29.2316 33.4946 28.5167 34.6055C27.5005 36.1951 27.9743 37.9806 28.5509 39.1985C28.9676 40.087 29.5933 40.9933 30.3126 41.751C32.2523 43.7965 34.9595 44.8761 37.5572 44.641Z" fill="black"/>
<path d="M37.5895 44.7153C37.5806 44.7173 37.5733 44.7167 37.5644 44.7187C34.8257 44.9673 32.1288 43.7799 30.256 41.8049C29.5883 41.1015 28.9371 40.2058 28.4802 39.2318C30.159 38.5099 32.3702 38.6713 34.3102 39.8386C36.2602 41.0084 37.4434 42.8865 37.5895 44.7153Z" fill="#FF2A2A"/>
<path d="M36.8537 44.8277C34.4301 44.8277 31.9913 43.7484 30.1991 41.8584C29.4686 41.0889 28.8331 40.1679 28.4093 39.2647L28.3751 39.1918L28.4493 39.1599C30.2061 38.4044 32.4677 38.6387 34.3504 39.7713C36.2438 40.9072 37.5149 42.7991 37.6674 44.7088L37.6727 44.7756L37.5836 44.7947C37.3411 44.8166 37.0972 44.8277 36.8537 44.8277ZM28.5859 39.2719C29.0021 40.1365 29.613 41.0139 30.3126 41.7507C32.2391 43.7826 34.9234 44.8622 37.5049 44.6452C37.3291 42.8108 36.0955 41.0005 34.2699 39.9053C32.456 38.8139 30.2866 38.5745 28.5859 39.2719Z" fill="black"/>
<path d="M38.0626 27.1522L37.6091 27.9932L41.3717 30.0224L41.8252 29.1814L38.0626 27.1522Z" fill="black"/>
<path d="M41.401 30.1288L37.501 28.0255L38.0287 27.0469L41.9287 29.1502L41.401 30.1288ZM37.7127 27.9621L41.3374 29.9171L41.7168 29.2138L38.0921 27.2588L37.7127 27.9621Z" fill="black"/>
<path d="M55.8015 36.7202C53.1513 41.6344 47.9882 44.016 44.1485 42.1491C44.0702 42.1102 43.9921 42.0711 43.9152 42.0297C43.6654 41.895 43.4292 41.745 43.2033 41.5811L43.2011 41.58C43.0888 41.4967 42.9822 41.4134 42.8761 41.3239C42.3329 40.8692 41.8685 40.3244 41.4935 39.7113C39.816 36.9788 39.8302 32.8784 41.8237 29.1821L55.8015 36.7202Z" fill="black"/>
<path d="M46.9939 42.8707C45.9977 42.8707 45.0227 42.6607 44.1143 42.2191C44.0277 42.176 43.9523 42.1382 43.8779 42.0982C43.6332 41.9661 43.3905 41.8134 43.1572 41.6442C43.0348 41.5539 42.9273 41.4692 42.8258 41.3834C42.2807 40.9273 41.8099 40.3782 41.4267 39.7519C39.683 36.9115 39.8118 32.748 41.7549 29.1449L41.7919 29.0762L55.9073 36.6885L55.8702 36.7573C53.8135 40.5707 50.2907 42.8707 46.9939 42.8707ZM41.8555 29.2877C39.9737 32.8268 39.8558 36.8943 41.5599 39.67C41.9343 40.2819 42.394 40.8182 42.9262 41.2636C43.0255 41.3473 43.1306 41.43 43.2475 41.5169C43.4768 41.6826 43.7132 41.8317 43.9523 41.9605C44.0251 41.9999 44.099 42.0367 44.1732 42.0738C46.0207 42.9724 48.2246 42.9113 50.3879 41.9066C52.5414 40.9063 54.4236 39.0774 55.6952 36.7516L41.8555 29.2877Z" fill="black"/>
<path d="M50.4879 33.8543C48.0196 36.4275 45.4514 38.8791 42.8761 41.3233C42.3329 40.8686 41.8685 40.3239 41.4935 39.7107C43.8352 37.3927 46.2609 35.1749 48.5701 32.8198L50.4879 33.8543Z" fill="white"/>
<path d="M42.8793 41.4282L42.8259 41.3835C42.2807 40.9271 41.8099 40.3782 41.4267 39.7517L41.3945 39.6989L41.4384 39.6554C42.4241 38.6799 43.4409 37.7062 44.4243 36.7646C45.7777 35.4689 47.1772 34.1291 48.5142 32.7657L48.5554 32.7236L50.6154 33.8343L50.5443 33.9084C48.1204 36.4353 45.6617 38.7874 42.93 41.3803L42.8793 41.4282ZM41.5927 39.7226C41.9482 40.2924 42.3785 40.7951 42.8731 41.2187C45.5566 38.6715 47.9768 36.355 50.3604 33.8743L48.5848 32.9168C47.2586 34.2675 45.873 35.594 44.5326 36.8774C43.5642 37.8043 42.5634 38.7626 41.5927 39.7226Z" fill="black"/>
<path d="M51.75 34.5346C49.2609 37.1258 46.6671 39.5892 44.1485 42.1483C44.0702 42.1094 43.9921 42.0704 43.9152 42.029C43.6653 41.8943 43.4292 41.7442 43.2032 41.5803C45.237 39.6494 47.2714 37.7122 49.2509 35.7133C49.7924 35.1642 50.3296 34.6129 50.8617 34.0557L51.75 34.5346Z" fill="white"/>
<path d="M44.1644 42.2439L44.1136 42.2186C44.0278 42.1757 43.9524 42.1379 43.878 42.0978C43.6333 41.9657 43.3906 41.813 43.1573 41.6438L43.0814 41.5888L43.1495 41.5241C45.3234 39.46 47.2789 37.5943 49.1956 35.6587C49.7869 35.0591 50.3133 34.517 50.8054 34.002L50.8465 33.959L51.878 34.5153L51.8067 34.5895C50.3713 36.0837 48.8768 37.5596 47.4316 38.9869C46.3694 40.0357 45.2711 41.12 44.2046 42.2039L44.1644 42.2439ZM43.3256 41.5721C43.5295 41.7155 43.7398 41.846 43.9522 41.9603C44.0117 41.9924 44.0721 42.0229 44.1325 42.0534C45.1875 40.9822 46.2719 39.9113 47.3212 38.8752C48.7421 37.4721 50.2102 36.0223 51.6224 34.5548L50.877 34.1527C50.3963 34.6556 49.8821 35.1847 49.3065 35.7682C47.4083 37.6851 45.473 39.5332 43.3256 41.5721Z" fill="black"/>
<path d="M38.0607 27.1525C35.3565 32.167 30.0357 34.5444 26.1745 32.462C26.0549 32.3975 25.9401 32.3292 25.8268 32.2582C25.5172 32.0654 25.2311 31.8496 24.9662 31.6097C24.8615 31.5177 24.7617 31.4218 24.6665 31.3219C24.1685 30.8141 23.7558 30.2195 23.4305 29.5652C22.0862 26.8541 22.2246 23.0598 24.0829 19.6143L38.0607 27.1525Z" fill="black"/>
<path d="M29.2167 33.2915C28.1413 33.2915 27.0944 33.0472 26.1373 32.5311C26.0277 32.4719 25.9158 32.4064 25.7852 32.3248C25.4741 32.1311 25.1809 31.9099 24.9136 31.668C24.8086 31.5755 24.706 31.4771 24.6098 31.3761C24.1171 30.8735 23.6963 30.2757 23.3606 29.6005C21.9568 26.7689 22.2071 22.9284 24.0141 19.5775L24.0511 19.5088L38.1667 27.1211L38.1296 27.1899C36.078 30.9935 32.5143 33.2915 29.2167 33.2915ZM24.1147 19.7204C22.3651 23.0109 22.1283 26.7633 23.5005 29.5308C23.8289 30.1914 24.2399 30.7756 24.7221 31.2674C24.8161 31.3658 24.915 31.461 25.0176 31.551C25.2789 31.7877 25.5647 32.0031 25.8679 32.192C25.9955 32.2718 26.1048 32.3358 26.2113 32.3933C30.0101 34.442 35.2636 32.1053 37.9544 27.1841L24.1147 19.7204Z" fill="black"/>
<path d="M32.1599 23.9703C29.73 26.5029 27.2033 28.9184 24.6665 31.322C24.1685 30.8142 23.7558 30.2196 23.4305 29.5653C25.6907 27.3423 28.0194 25.2018 30.2421 22.936L32.1599 23.9703Z" fill="white"/>
<path d="M24.6645 31.4314L24.6106 31.3764C24.1171 30.873 23.6963 30.2753 23.3606 29.6001L23.3353 29.5493L23.3758 29.5096C24.2687 28.6315 25.187 27.7519 26.0751 26.9014C27.4355 25.5986 28.8422 24.2515 30.1863 22.8812L30.2276 22.8394L32.2875 23.9502L32.2164 24.0243C29.7626 26.5817 27.1677 29.0599 24.7203 31.3786L24.6645 31.4314ZM23.5258 29.5811C23.8377 30.1967 24.2218 30.7447 24.6686 31.2121C27.0747 28.932 29.6204 26.4996 32.0321 23.9902L30.2567 23.0325C28.9233 24.3901 27.5305 25.724 26.1832 27.0144C25.3089 27.8516 24.4051 28.717 23.5258 29.5811Z" fill="black"/>
<path d="M33.4221 24.6506C30.9344 27.2393 28.3439 29.7014 25.8267 32.258C25.5171 32.0651 25.231 31.8493 24.9661 31.6095C26.9703 29.7079 28.9708 27.7978 30.9229 25.8292C31.4643 25.2801 32.0015 24.7288 32.5336 24.1714L33.4221 24.6506Z" fill="white"/>
<path d="M25.8384 32.3574L25.7852 32.3244C25.4741 32.1305 25.181 31.9094 24.9136 31.6675L24.8513 31.6109L24.9125 31.553C26.8353 29.7286 28.8789 27.7798 30.8674 25.7744C31.4535 25.1803 31.9801 24.6383 32.4773 24.1177L32.5184 24.0747L33.5499 24.631L33.4787 24.7052C32.0415 26.2007 30.5456 27.6781 29.0988 29.107C28.0404 30.1522 26.946 31.2333 25.8826 32.3133L25.8384 32.3574ZM25.0814 31.6077C25.3093 31.808 25.5555 31.993 25.8149 32.1583C26.8653 31.0926 27.9445 30.0266 28.9888 28.9953C30.4109 27.5909 31.8806 26.1394 33.2946 24.6705L32.5492 24.2685C32.0637 24.7765 31.5493 25.3056 30.9786 25.8842C29.0094 27.8699 26.9872 29.7995 25.0814 31.6077Z" fill="black"/>
<path d="M36.058 32.9723C35.5051 33.7128 35.7061 34.7979 36.5069 35.3959C37.3078 35.9939 38.4052 35.8783 38.9582 35.1377C39.5111 34.3972 39.3101 33.3121 38.5093 32.7141C37.7085 32.1163 36.611 32.2317 36.058 32.9723Z" fill="#FFD200"/>
<path d="M37.6383 35.8559C37.2344 35.8559 36.8182 35.7259 36.4602 35.4585C36.0571 35.1576 35.7864 34.7291 35.698 34.2519C35.6092 33.7725 35.7149 33.3013 35.9955 32.9257C36.276 32.5499 36.6976 32.3148 37.1826 32.2637C37.6639 32.213 38.1529 32.3508 38.556 32.6517C39.3902 33.2744 39.5986 34.4108 39.0209 35.1846C38.691 35.6262 38.1754 35.8559 37.6383 35.8559ZM37.3794 32.4097C37.3192 32.4097 37.2591 32.4128 37.199 32.4192C36.7579 32.4656 36.3751 32.6786 36.1208 33.0191C35.8666 33.3598 35.7711 33.7875 35.8518 34.2234C35.933 34.6619 36.1822 35.056 36.5537 35.3335C37.3187 35.9045 38.3695 35.7959 38.8957 35.0913C39.4219 34.3864 39.2276 33.3484 38.4627 32.7769C38.1415 32.5372 37.7625 32.4097 37.3794 32.4097Z" fill="black"/>
<path d="M37.7412 32.9653C38.1327 33.5775 37.182 34.1872 36.7896 33.5739C36.3982 32.9615 37.349 32.352 37.7412 32.9653Z" fill="white"/>
<path d="M35.0939 0.000767635L33.5123 0.449219L35.8159 8.57345L37.3975 8.125L35.0939 0.000767635Z" fill="#009CF7"/>
<path d="M15.764 12.1427L14.8079 13.479L21.1289 18.0015L22.085 16.6652L15.764 12.1427Z" fill="#009CF7"/>
<path d="M24.5611 3.95197L23.1384 4.7749L27.678 12.6229L29.1007 11.7999L24.5611 3.95197Z" fill="#009CF7"/>
</g>
<defs>
<clipPath id="clip0_3_824">
<rect width="80" height="80" fill="white" transform="translate(0.5)"/>
</clipPath>
</defs>
</svg>
