<svg width="81" height="80" viewBox="0 0 81 80" fill="none" xmlns="http://www.w3.org/2000/svg">
<g clip-path="url(#clip0_3_712)">
<path d="M66.4753 78.7133H12.5664C12.5664 78.7133 18.2863 68.845 26.9103 70.0806C35.5342 71.3163 34.6721 75.0449 41.4305 73.8281C46.2569 72.9592 45.1017 71.3944 50.7746 69.3727C58.7492 66.5306 66.4753 78.7133 66.4753 78.7133Z" fill="#F4F1E3"/>
<path d="M72.953 18.9511C72.9024 18.9511 72.8526 18.9277 72.8202 18.8838C72.7668 18.8106 72.7827 18.7077 72.856 18.6544C72.9637 18.5672 73.6541 17.8519 73.9772 17.4722C73.5969 17.5249 72.8937 17.6585 72.2538 17.7952C72.1644 17.8116 72.0777 17.7574 72.059 17.6688C72.0399 17.5799 72.0965 17.4927 72.1852 17.4738C74.3749 17.0061 74.4021 17.0938 74.451 17.2525C74.5349 17.5225 73.0655 18.9081 73.0497 18.9194C73.0205 18.941 72.9865 18.9511 72.953 18.9511Z" fill="#241726"/>
<path d="M70.4202 18.9931C70.4202 18.9931 70.5793 16.4337 71.9146 16.899C73.7643 17.5436 74.6149 22.312 71.1229 23.347C67.631 24.382 66.3724 21.51 66.3724 21.51L68.2482 21.0797C68.2482 21.0797 66.9055 19.8661 67.0326 18.8723C67.1596 17.8786 68.2087 18.7544 68.2087 18.7544C68.2087 18.7544 66.9833 16.4626 68.0019 16.3953C69.0204 16.3281 70.4202 18.9931 70.4202 18.9931Z" fill="#B1739A"/>
<path d="M71.9957 18.6936C71.6386 18.6936 71.2918 18.1708 71.1921 18.0076C71.1447 17.9299 71.1693 17.829 71.2468 17.7818C71.3238 17.7343 71.4251 17.7586 71.4724 17.8363C71.6097 18.0608 71.8251 18.3046 71.9507 18.3555C71.9522 18.219 71.8588 17.8821 71.7316 17.5822C71.6963 17.4988 71.7354 17.4024 71.8186 17.3671C71.9022 17.3318 71.9985 17.3704 72.034 17.454C72.1677 17.7693 72.3705 18.3333 72.226 18.5688C72.1807 18.6429 72.1076 18.6868 72.0201 18.6929C72.0119 18.6936 72.0038 18.6936 71.9957 18.6936Z" fill="#241726"/>
<path d="M68.8413 21.0711C68.8044 21.0711 68.7672 21.0586 68.7366 21.0333C68.6363 20.9498 67.7601 20.2026 67.8233 19.5887C67.8444 19.3858 67.9619 19.3103 68.0301 19.2834C68.231 19.2042 68.5208 19.3434 68.7649 19.5067C68.6529 18.8778 68.7111 18.5223 68.9399 18.4483C69.0372 18.4162 69.3335 18.3212 70.4201 20.0134C70.469 20.0898 70.4468 20.1914 70.3705 20.2404C70.294 20.2895 70.1926 20.267 70.1436 20.1911C69.7496 19.5772 69.2315 18.895 69.0352 18.7789C69.0086 18.9004 69.0616 19.3953 69.1797 19.8703C69.1969 19.9395 69.1672 20.0123 69.1061 20.0497C69.0451 20.0872 68.9671 20.0811 68.9127 20.0339C68.6191 19.7789 68.256 19.5618 68.1554 19.5878C68.156 19.5908 68.1526 19.6022 68.1504 19.6228C68.1158 19.9547 68.6205 20.5092 68.9468 20.7806C69.0163 20.8386 69.026 20.9423 68.9679 21.0118C68.9352 21.0509 68.8885 21.0711 68.8413 21.0711Z" fill="#241726"/>
<path d="M70.3772 22.7548C69.876 22.7548 69.5068 22.6566 69.4772 22.6487C69.3899 22.6246 69.3385 22.5345 69.3624 22.447C69.3863 22.3598 69.4765 22.309 69.564 22.3318C69.5768 22.3357 70.853 22.6718 71.8322 22.0348C72.4216 21.6512 72.7919 20.9896 72.933 20.0684C72.9465 19.9785 73.0283 19.9166 73.1202 19.9307C73.2099 19.9445 73.2715 20.0282 73.2577 20.1177C73.1018 21.137 72.6818 21.8749 72.0091 22.3115C71.4669 22.6634 70.8607 22.7548 70.3772 22.7548Z" fill="#241726"/>
<path d="M1.66621 40.4582C1.63339 40.4582 1.60011 40.4482 1.57136 40.4271C1.55558 40.4156 0.0866738 39.0288 0.170111 38.7596C0.221361 38.5967 0.246674 38.5146 2.43605 38.9812C2.5248 39.0001 2.58121 39.0873 2.5623 39.1762C2.54339 39.2648 2.45605 39.3199 2.36746 39.3026C1.72761 39.166 1.02464 39.0323 0.644018 38.9796C0.967299 39.3593 1.65808 40.0753 1.76777 40.1637C1.83699 40.2198 1.85089 40.3224 1.79652 40.3934C1.76402 40.4357 1.71542 40.4582 1.66621 40.4582Z" fill="#241726"/>
<path d="M4.2009 40.5009C4.2009 40.5009 4.04184 37.9415 2.70653 38.4069C0.856841 39.0514 0.00621545 43.8198 3.49825 44.8548C6.99012 45.8898 8.24872 43.0178 8.24872 43.0178L6.37309 42.5875C6.37309 42.5875 7.71575 41.3739 7.58872 40.3801C7.46168 39.3865 6.41262 40.2622 6.41262 40.2622C6.41262 40.2622 7.63793 37.9704 6.61934 37.9031C5.60075 37.8359 4.2009 40.5009 4.2009 40.5009Z" fill="#B1739A"/>
<path d="M2.62544 40.2018C2.61747 40.2018 2.60919 40.2018 2.60122 40.2011C2.51372 40.1951 2.44059 40.1511 2.39512 40.0771C2.25059 39.8416 2.45356 39.2775 2.58715 38.9619C2.62278 38.8782 2.71919 38.8394 2.80247 38.875C2.8859 38.9104 2.92481 39.0066 2.8895 39.0902C2.76231 39.3904 2.66887 39.7272 2.67044 39.8638C2.79637 39.8129 3.01169 39.5691 3.14872 39.3443C3.19622 39.2666 3.29747 39.2426 3.37434 39.2897C3.45184 39.3369 3.47637 39.4379 3.42903 39.5155C3.32965 39.6786 2.98231 40.2018 2.62544 40.2018Z" fill="#241726"/>
<path d="M5.77995 42.5789C5.73277 42.5789 5.68605 42.5588 5.65355 42.5195C5.59558 42.45 5.60511 42.3463 5.6748 42.2883C6.00105 42.0169 6.50542 41.4625 6.47105 41.1305C6.46792 41.1 6.46136 41.0897 6.46136 41.0897C6.37589 41.065 6.00667 41.2831 5.70855 41.5416C5.65417 41.5885 5.57574 41.5949 5.51511 41.5574C5.45402 41.5202 5.42433 41.4474 5.44152 41.3777C5.55324 40.928 5.60683 40.4608 5.57027 40.2969C5.36339 40.4377 4.86167 41.101 4.47761 41.6991C4.42839 41.775 4.32683 41.7975 4.25074 41.7485C4.17449 41.6994 4.1523 41.5977 4.2012 41.5214C5.28824 39.828 5.58355 39.9239 5.68136 39.9563C5.91011 40.0303 5.96855 40.3856 5.85636 41.0144C6.10074 40.8514 6.39105 40.7116 6.59136 40.7911C6.65933 40.818 6.77667 40.8935 6.79792 41.0964C6.8612 41.7103 5.98511 42.4575 5.8848 42.541C5.85417 42.5664 5.81683 42.5789 5.77995 42.5789Z" fill="#241726"/>
<path d="M4.24371 44.2626C3.76043 44.2626 3.15418 44.1712 2.61215 43.8193C1.93949 43.3827 1.51934 42.6448 1.3634 41.6256C1.34965 41.536 1.41121 41.4524 1.5009 41.4385C1.59137 41.4245 1.67434 41.4863 1.68809 41.5762C1.82918 42.4976 2.19949 43.1593 2.78903 43.5426C3.76793 44.1795 5.04465 43.843 5.05731 43.8396C5.14496 43.8165 5.23512 43.8676 5.25887 43.9548C5.28278 44.0423 5.23153 44.1324 5.14403 44.1565C5.11449 44.1645 4.74512 44.2626 4.24371 44.2626Z" fill="#241726"/>
<path d="M9.67503 17.7531C9.67503 17.7531 10.6852 14.7565 11.1185 15.066C11.5519 15.3754 11.443 15.8957 11.443 15.8957C11.443 15.8957 12.7032 14.2676 13.3863 14.6657C14.0693 15.0639 13.4021 15.872 13.4021 15.872C13.4021 15.872 15.5169 14.3715 15.8505 15.1576C16.1841 15.9437 14.2772 17.5496 14.2772 17.5496C14.2772 17.5496 15.3777 16.8685 15.6061 17.7912C15.8346 18.7139 13.9871 18.9365 13.8722 18.9359C13.7574 18.9354 14.4758 18.9034 14.2603 19.5145C14.0449 20.1254 8.2316 20.4403 9.67503 17.7531Z" fill="#51AEA5"/>
<path d="M7.00706 21.0492C7.00706 21.0492 4.17597 22.4579 4.08753 21.9327C3.9991 21.4076 4.44347 21.116 4.44347 21.116C4.44347 21.116 2.40144 21.3792 2.19878 20.6149C1.99613 19.8507 3.03925 19.7496 3.03925 19.7496C3.03925 19.7496 0.482222 19.319 0.800972 18.5267C1.11972 17.7345 3.6041 17.9437 3.6041 17.9437C3.6041 17.9437 2.34394 17.649 2.83363 16.8343C3.32332 16.0196 4.78878 17.1665 4.86972 17.2479C4.95066 17.3293 4.41925 16.8446 5.00331 16.5642C5.58753 16.2837 9.92644 20.1656 7.00706 21.0492Z" fill="#51AEA5"/>
<path d="M10.3944 20.5759C10.3944 20.5759 13.0311 22.3214 12.6208 22.6609C12.2105 23.0003 11.7356 22.7616 11.7356 22.7616C11.7356 22.7616 12.9856 24.3975 12.4256 24.9555C11.8655 25.5134 11.2558 24.6611 11.2558 24.6611C11.2558 24.6611 12.163 27.0902 11.3177 27.2109C10.4724 27.3316 9.40971 25.0763 9.40971 25.0763C9.40971 25.0763 9.78549 26.3147 8.83502 26.2986C7.88456 26.2825 8.14377 24.4398 8.17377 24.3289C8.20377 24.2181 8.05018 24.9206 7.51487 24.5555C6.97956 24.1903 8.16784 18.4911 10.3944 20.5759Z" fill="#51AEA5"/>
<path d="M11.1078 18.7081C10.8011 18.6439 10.4966 18.6592 10.2141 18.7378C10.3386 17.7669 9.69862 16.848 8.72409 16.6441C7.69987 16.4297 6.69565 17.0864 6.48143 18.1106C6.35268 18.7263 6.54003 19.3335 6.93128 19.7674C6.24878 19.938 5.68784 20.4814 5.53409 21.2163C5.31972 22.2405 5.97643 23.2447 7.00065 23.4589C8.02503 23.6733 9.02909 23.0166 9.24331 21.9924C9.25784 21.9231 9.26753 21.8541 9.27425 21.7853C9.53753 22.097 9.90143 22.3274 10.3316 22.4175C11.356 22.6319 12.36 21.9752 12.5742 20.951C12.7888 19.9266 12.1322 18.9225 11.1078 18.7081ZM8.8419 20.3236C8.8394 20.343 8.83612 20.3624 8.8344 20.3817C8.82112 20.3661 8.80737 20.3508 8.79378 20.3356C8.80972 20.3316 8.82597 20.3281 8.8419 20.3236Z" fill="#D45A41"/>
<path d="M6.40878 19.8187C6.37691 19.8187 6.34456 19.8095 6.31628 19.7901C5.17831 19.0128 3.0444 19.1086 3.02284 19.1082C2.92956 19.1182 2.85503 19.0428 2.85081 18.9525C2.84644 18.862 2.91628 18.785 3.00691 18.7806C3.09862 18.7757 5.2719 18.6792 6.50175 19.5189C6.57659 19.5701 6.59581 19.6722 6.54472 19.7473C6.51269 19.7937 6.46112 19.8187 6.40878 19.8187Z" fill="#241726"/>
<path d="M11.1077 18.8721C11.0307 18.8721 10.9619 18.8175 10.9468 18.7392C10.9294 18.65 10.9875 18.5638 11.0764 18.5464C11.7753 18.4105 12.9855 16.8803 13.393 16.3021C13.4452 16.2283 13.5472 16.21 13.6219 16.2622C13.696 16.3144 13.7138 16.4171 13.6616 16.4911C13.5039 16.715 12.0939 18.683 11.1394 18.8689C11.1286 18.8711 11.1182 18.8721 11.1077 18.8721Z" fill="#241726"/>
<path d="M10.1697 25.2853C10.0802 25.2853 10.0069 25.2134 10.0055 25.1236C9.99596 24.5517 9.85799 23.0008 9.34003 22.6947C9.2619 22.6484 9.23612 22.5478 9.28206 22.4698C9.32831 22.3915 9.42878 22.3662 9.50706 22.4117C10.2752 22.8656 10.3302 24.889 10.3339 25.1183C10.3353 25.2087 10.263 25.2834 10.1724 25.285C10.1714 25.2853 10.1705 25.2853 10.1697 25.2853Z" fill="#241726"/>
<path d="M10.2477 18.7329C10.1627 18.7015 10.0685 18.7448 10.0366 18.8301C10.0328 18.8401 9.64738 19.8551 8.83378 20.0135C8.8055 20.0191 8.78207 20.0332 8.7616 20.0505C8.7205 20.022 8.68035 19.9927 8.63441 19.9668C7.99347 19.6043 7.4505 19.4838 7.02035 19.6109C6.64785 19.7205 6.50566 19.9743 6.4905 20.0027C6.44878 20.0823 6.47925 20.1794 6.55816 20.2221C6.63675 20.2654 6.73613 20.2355 6.78035 20.1573C6.78425 20.1505 6.87597 19.9918 7.12394 19.9224C7.35832 19.8582 7.78207 19.8615 8.47269 20.2527C9.34613 20.7466 9.09457 21.9066 9.08347 21.9557C9.06347 22.0438 9.11863 22.1321 9.20691 22.1523C9.21925 22.1548 9.2316 22.1565 9.24363 22.1565C9.31847 22.1565 9.38597 22.1052 9.40347 22.0291C9.41488 21.9795 9.63222 20.9785 9.03988 20.2985C9.9341 20.0285 10.3278 18.9898 10.3449 18.9434C10.3761 18.8585 10.3327 18.7643 10.2477 18.7329Z" fill="#241726"/>
<path d="M9.57207 18.256C9.503 18.256 9.43863 18.2121 9.41597 18.1427C9.19769 17.4769 8.43035 17.533 8.42316 17.5327C8.33113 17.5413 8.25347 17.473 8.24597 17.3825C8.23863 17.2921 8.30581 17.2128 8.39628 17.2055C8.75269 17.1728 9.48957 17.313 9.72816 18.0407C9.75644 18.1266 9.70941 18.2192 9.62331 18.2478C9.60628 18.2533 9.58894 18.256 9.57207 18.256Z" fill="#FBFCFF"/>
<path d="M12.0519 20.6822C11.98 20.6822 11.9139 20.6344 11.8938 20.5619C11.7574 20.0693 11.04 19.7679 11.0328 19.7646C10.9491 19.7302 10.9092 19.6341 10.9436 19.5504C10.9782 19.4666 11.0739 19.4269 11.1577 19.4608C11.1932 19.4755 12.0307 19.8258 12.2103 20.474C12.2346 20.5615 12.1833 20.6519 12.0958 20.676C12.0813 20.6802 12.0664 20.6822 12.0519 20.6822Z" fill="#FBFCFF"/>
<path d="M8.59222 21.644C8.50238 21.644 8.42909 21.5718 8.428 21.4816C8.42675 21.3726 8.38753 21.2832 8.30863 21.2083C8.05722 20.9704 7.4755 20.938 7.27144 20.9488C7.18441 20.9521 7.10441 20.8824 7.10034 20.7916C7.09644 20.7012 7.16675 20.6246 7.25722 20.6204C7.29316 20.6204 8.12941 20.5868 8.53409 20.9693C8.67925 21.1066 8.75394 21.2776 8.75659 21.4776C8.75769 21.568 8.68503 21.6424 8.59441 21.6437C8.59363 21.644 8.59284 21.644 8.59222 21.644Z" fill="#FBFCFF"/>
<path d="M70.5682 56.2255C70.5682 56.2255 67.8132 54.6733 68.1981 54.3053C68.5829 53.9374 69.0737 54.1416 69.0737 54.1416C69.0737 54.1416 67.7096 52.5994 68.2284 52.0027C68.747 51.4061 69.4164 52.2125 69.4164 52.2125C69.4164 52.2125 68.3374 49.8547 69.172 49.6738C70.0065 49.4928 71.2279 51.6663 71.2279 51.6663C71.2279 51.6663 70.7645 50.458 71.7135 50.406C72.6626 50.3539 72.5362 52.2105 72.5142 52.3232C72.4921 52.4358 72.5951 51.7241 73.1551 52.0499C73.7153 52.3758 72.9384 58.1455 70.5682 56.2255Z" fill="#51AEA5"/>
<path d="M73.3076 59.4625C73.3076 59.4625 74.1626 62.5069 73.6303 62.4956C73.0979 62.4844 72.8945 61.9933 72.8945 61.9933C72.8945 61.9933 72.7715 64.0484 71.9829 64.1049C71.1943 64.1611 71.2898 63.1175 71.2898 63.1175C71.2898 63.1175 70.389 65.5491 69.6703 65.0878C68.9515 64.6267 69.6212 62.2252 69.6212 62.2252C69.6212 62.2252 69.0964 63.4081 68.3875 62.7749C67.6786 62.1416 69.079 60.9161 69.1742 60.8519C69.2693 60.7875 68.6939 61.2191 68.5275 60.5928C68.3609 59.9666 72.985 56.4292 73.3076 59.4625Z" fill="#51AEA5"/>
<path d="M73.4759 56.0462C73.4759 56.0462 75.6832 53.7819 75.9401 54.2484C76.197 54.7148 75.8735 55.1368 75.8735 55.1368C75.8735 55.1368 77.7143 54.2144 78.1578 54.8688C78.6012 55.5234 77.6499 55.9632 77.6499 55.9632C77.6499 55.9632 80.2057 55.5257 80.1663 56.3788C80.127 57.2319 77.7128 57.8543 77.7128 57.8543C77.7128 57.8543 78.9995 57.7165 78.8062 58.6471C78.6128 59.5777 76.851 58.979 76.7478 58.9288C76.6445 58.8787 77.306 59.1609 76.8473 59.6184C76.3887 60.076 71.0117 57.844 73.4759 56.0462Z" fill="#51AEA5"/>
<path d="M74.6522 57.4414C74.5868 57.4142 74.5209 57.3917 74.4545 57.3724C74.8098 57.1721 75.1042 56.8575 75.2731 56.4516C75.675 55.4853 75.2175 54.3763 74.2514 53.9744C73.2851 53.5725 72.1761 54.03 71.7742 54.9961C71.6539 55.2855 71.612 55.5875 71.6364 55.8797C70.7057 55.576 69.6834 56.033 69.3011 56.9524C68.8992 57.9186 69.3567 59.0277 70.3228 59.4296C70.9036 59.6711 71.535 59.6003 72.0343 59.2971C72.0745 59.9994 72.5036 60.6521 73.1967 60.9403C74.1629 61.3422 75.272 60.8847 75.6739 59.9185C76.0759 58.9524 75.6184 57.8433 74.6522 57.4414ZM72.9378 57.5242C72.9564 57.5303 72.9748 57.5371 72.9934 57.5425C72.9756 57.5525 72.9579 57.5631 72.9404 57.5739C72.9397 57.5574 72.9392 57.5407 72.9378 57.5242Z" fill="#D45A41"/>
<path d="M70.3307 63.0995C70.3232 63.0995 70.3154 63.0989 70.3078 63.098C70.2179 63.0855 70.1554 63.0023 70.1679 62.9127C70.1806 62.8216 70.4912 60.6686 71.5463 59.6172C71.6107 59.5533 71.7146 59.5533 71.7785 59.6178C71.8428 59.6819 71.8424 59.7859 71.7782 59.85C70.8017 60.8228 70.4962 62.937 70.4931 62.9581C70.4817 63.0402 70.4113 63.0995 70.3307 63.0995Z" fill="#241726"/>
<path d="M71.774 55.1604C71.6836 55.1604 71.6101 55.0873 71.6098 54.9968C71.6067 54.2845 70.3296 52.8098 69.8376 52.3018C69.7746 52.2366 69.7762 52.1327 69.8415 52.0696C69.907 52.0068 70.0109 52.008 70.0737 52.0735C70.264 52.2701 71.934 54.0229 71.9382 54.9957C71.9386 55.0865 71.8654 55.1602 71.7746 55.1605L71.774 55.1604Z" fill="#241726"/>
<path d="M75.2367 57.5335C75.1981 57.5335 75.1593 57.52 75.1282 57.4924C75.0601 57.4327 75.0535 57.3288 75.1134 57.2608C75.7029 56.5911 77.7013 56.9153 77.927 56.9546C78.0163 56.9699 78.076 57.0549 78.0607 57.1441C78.0453 57.2336 77.9609 57.2961 77.8709 57.2778C77.3076 57.1806 75.7573 57.0261 75.3601 57.4777C75.3274 57.5146 75.2823 57.5335 75.2367 57.5335Z" fill="#241726"/>
<path d="M74.7182 57.2913C74.6715 57.2707 73.7285 56.87 72.9501 57.3252C72.8523 56.3964 71.9051 55.8157 71.8628 55.79C71.7848 55.7438 71.6843 55.7678 71.6376 55.8461C71.5909 55.9238 71.6159 56.0247 71.6935 56.0716C71.7029 56.0771 72.6281 56.6453 72.6317 57.4741C72.6318 57.503 72.6414 57.5286 72.6545 57.5522C72.6187 57.5874 72.5824 57.6213 72.5482 57.6617C72.072 58.2239 71.8529 58.7349 71.8968 59.1807C71.935 59.5671 72.1578 59.7541 72.1829 59.7742C72.2129 59.798 72.2485 59.8096 72.2839 59.8096C72.3315 59.8096 72.3787 59.7886 72.4112 59.7489C72.4681 59.6794 72.4578 59.5764 72.389 59.5186C72.3831 59.5135 72.2442 59.3936 72.2228 59.1369C72.2025 58.895 72.2859 58.4794 72.7987 57.8739C73.4473 57.1077 74.5403 57.5717 74.5862 57.5921C74.6703 57.6286 74.7664 57.5902 74.8023 57.5074C74.8389 57.4244 74.8012 57.3278 74.7182 57.2913Z" fill="#241726"/>
<path d="M69.9551 57.5606C69.9493 57.5606 69.9434 57.5603 69.9376 57.5597C69.8473 57.55 69.7821 57.4692 69.7917 57.3791C69.8295 57.0234 70.1017 56.3252 70.8606 56.2267C70.9503 56.2139 71.0329 56.2784 71.0445 56.3684C71.0562 56.4586 70.9928 56.5406 70.9029 56.5525C70.2082 56.6427 70.1189 57.4059 70.1181 57.4136C70.1092 57.4981 70.0379 57.5606 69.9551 57.5606Z" fill="#FBFCFF"/>
<path d="M72.6603 55.3416C72.6295 55.3416 72.5984 55.333 72.5706 55.3147C72.4948 55.2654 72.4734 55.1637 72.5228 55.088C72.5437 55.0557 73.0443 54.2983 73.7148 54.2432C73.8062 54.2362 73.8845 54.3029 73.892 54.3933C73.8993 54.4838 73.8321 54.563 73.7417 54.5704C73.2321 54.6124 72.8021 55.2608 72.7978 55.2672C72.7665 55.3154 72.7139 55.3416 72.6603 55.3416Z" fill="#FBFCFF"/>
<path d="M73.0963 59.3245C73.0885 59.3245 73.0804 59.3238 73.0724 59.3226C72.9828 59.3098 72.9206 59.2263 72.9337 59.1365C72.9387 59.1015 73.0637 58.273 73.5149 57.9473C73.6767 57.8309 73.8585 57.7888 74.0554 57.8241C74.1448 57.8399 74.2042 57.9252 74.1884 58.0143C74.1724 58.1038 74.0887 58.1618 73.9981 58.1474C73.8899 58.1282 73.7954 58.1499 73.7076 58.2135C73.4265 58.4159 73.2882 58.9826 73.2585 59.184C73.2467 59.2657 73.1765 59.3245 73.0963 59.3245Z" fill="#FBFCFF"/>
<path d="M27.0178 72.1554C26.9725 72.1554 26.9273 72.1368 26.895 72.1003C26.8747 72.0775 26.3984 71.5621 25.6514 71.9162C25.5697 71.9543 25.4717 71.9201 25.4328 71.8379C25.3939 71.7562 25.4288 71.6581 25.5109 71.6192C26.292 71.2496 26.9188 71.6298 27.1413 71.8828C27.2013 71.951 27.1945 72.0546 27.1264 72.1146C27.0948 72.142 27.0563 72.1554 27.0178 72.1554Z" fill="#241726"/>
<path d="M25.7223 73.1232C25.677 73.1232 25.6319 73.1046 25.5995 73.068C25.5792 73.0449 25.1031 72.5293 24.3559 72.884C24.2744 72.9221 24.1759 72.8879 24.1373 72.8057C24.0984 72.724 24.1333 72.6259 24.2155 72.5869C24.9964 72.2174 25.6233 72.5976 25.8456 72.8505C25.9056 72.9188 25.8989 73.0224 25.8308 73.0824C25.7995 73.1098 25.7608 73.1232 25.7223 73.1232Z" fill="#241726"/>
<path d="M23.5452 72.9377C23.4999 72.9377 23.4547 72.9191 23.4223 72.8825C23.4022 72.8597 22.9272 72.3433 22.1788 72.6982C22.097 72.7366 21.9991 72.7017 21.96 72.6199C21.9213 72.5382 21.9563 72.44 22.0383 72.4011C22.8191 72.031 23.4463 72.4121 23.6686 72.665C23.7286 72.7333 23.7219 72.8369 23.6538 72.8969C23.6224 72.9242 23.5836 72.9377 23.5452 72.9377Z" fill="#241726"/>
<path d="M21.3519 72.0547C21.3038 72.0547 21.2561 72.0339 21.2238 71.9934C21.167 71.9228 21.178 71.8192 21.2488 71.7625C21.9314 71.2134 22.6183 71.4414 22.8858 71.6391C22.9589 71.693 22.9745 71.7956 22.9206 71.8688C22.8672 71.9413 22.7649 71.9574 22.6916 71.9041C22.6666 71.8858 22.1052 71.4949 21.4547 72.0186C21.4244 72.0428 21.388 72.0547 21.3519 72.0547Z" fill="#241726"/>
<path d="M23.7236 71.8744C23.673 71.8744 23.623 71.8509 23.5908 71.807C23.5374 71.7339 23.5533 71.6309 23.6266 71.5777C24.3316 71.0619 25.0089 71.3217 25.2688 71.5311C25.3394 71.5881 25.3503 71.6914 25.2935 71.762C25.237 71.8325 25.1338 71.8434 25.0633 71.7873C25.0399 71.7691 24.4931 71.3511 23.8202 71.8425C23.7911 71.8642 23.7572 71.8744 23.7236 71.8744Z" fill="#241726"/>
<path d="M20.865 73.8065C20.8144 73.8065 20.7645 73.7831 20.7322 73.7392C20.6787 73.666 20.6947 73.5631 20.768 73.5098C21.4731 72.994 22.1503 73.2538 22.4102 73.4632C22.4808 73.5203 22.4917 73.6235 22.4348 73.6942C22.3784 73.7648 22.2755 73.7756 22.2047 73.7195C22.1816 73.7018 21.6345 73.2829 20.9616 73.7746C20.9325 73.7964 20.8986 73.8065 20.865 73.8065Z" fill="#241726"/>
<path d="M19.4716 73.0504C19.4295 73.0504 19.3874 73.0343 19.3553 73.0023C19.2913 72.9381 19.2913 72.8338 19.3556 72.7701C19.9794 72.147 20.6834 72.2996 20.9678 72.467C21.0461 72.5128 21.072 72.6135 21.0259 72.6918C20.9803 72.7695 20.8798 72.796 20.8017 72.7503C20.7741 72.7342 20.1824 72.4093 19.5875 73.0023C19.5556 73.0345 19.5136 73.0504 19.4716 73.0504Z" fill="#241726"/>
<path d="M57.5698 71.556C57.5244 71.556 57.4793 71.5374 57.4469 71.5008C57.4268 71.478 56.9508 70.962 56.2033 71.3167C56.1213 71.3549 56.0235 71.3206 55.9848 71.2385C55.9459 71.1567 55.9807 71.0585 56.0629 71.0197C56.8435 70.6499 57.4708 71.0303 57.6932 71.2833C57.7532 71.3516 57.7465 71.4552 57.6783 71.5152C57.6469 71.5425 57.6083 71.556 57.5698 71.556Z" fill="#241726"/>
<path d="M56.2744 72.5236C56.2291 72.5236 56.184 72.505 56.1516 72.4684C56.1313 72.4456 55.6551 71.9297 54.908 72.2844C54.8263 72.3225 54.7283 72.2883 54.6894 72.2061C54.6505 72.1244 54.6854 72.0261 54.7676 71.9873C55.5482 71.6178 56.1754 71.998 56.3979 72.2509C56.4579 72.3192 56.4512 72.4228 56.3829 72.4828C56.3515 72.51 56.3129 72.5236 56.2744 72.5236Z" fill="#241726"/>
<path d="M54.0971 72.338C54.0518 72.338 54.0066 72.3194 53.9743 72.2829C53.954 72.2601 53.4784 71.7441 52.731 72.0988C52.6488 72.1369 52.5513 72.1027 52.5123 72.0205C52.4734 71.9388 52.5082 71.8405 52.5902 71.8018C53.3712 71.4323 53.998 71.8124 54.2205 72.0654C54.2805 72.1337 54.2738 72.2373 54.2055 72.2973C54.1743 72.3246 54.1357 72.338 54.0971 72.338Z" fill="#241726"/>
<path d="M51.9038 71.455C51.8557 71.455 51.808 71.4342 51.7757 71.3937C51.719 71.3231 51.7301 71.2195 51.8007 71.1628C52.4829 70.614 53.1704 70.8417 53.4379 71.0393C53.511 71.0932 53.5265 71.1959 53.4727 71.269C53.4194 71.3418 53.3166 71.3575 53.2438 71.3043C53.2185 71.2864 52.6574 70.8948 52.0066 71.4189C51.9763 71.4431 51.9399 71.455 51.9038 71.455Z" fill="#241726"/>
<path d="M54.2757 71.2748C54.2251 71.2748 54.1752 71.2513 54.1429 71.2074C54.0895 71.1343 54.1054 71.0313 54.1787 70.978C54.8838 70.4623 55.5609 70.7221 55.8209 70.9315C55.8915 70.9885 55.9024 71.0918 55.8455 71.1624C55.789 71.233 55.686 71.2438 55.6154 71.1877C55.5924 71.1701 55.0455 70.7512 54.3723 71.2429C54.3432 71.2645 54.3091 71.2748 54.2757 71.2748Z" fill="#241726"/>
<path d="M51.4173 73.2069C51.3667 73.2069 51.3168 73.1835 51.2845 73.1396C51.231 73.0664 51.247 72.9635 51.3202 72.9102C52.0252 72.3944 52.7029 72.6542 52.9623 72.8636C53.0331 72.9206 53.044 73.0239 52.9871 73.0946C52.9306 73.1649 52.8276 73.1763 52.757 73.1199C52.7338 73.1016 52.1874 72.6833 51.5138 73.175C51.4848 73.1966 51.4507 73.2069 51.4173 73.2069Z" fill="#241726"/>
<path d="M50.0237 72.451C49.9816 72.451 49.9394 72.4349 49.9074 72.4029C49.8433 72.3388 49.8434 72.2344 49.9077 72.1707C50.5318 71.5469 51.2354 71.7002 51.5199 71.8676C51.598 71.9134 51.624 72.0141 51.578 72.0924C51.5321 72.1701 51.4315 72.196 51.3541 72.1512C51.329 72.1368 50.7363 71.808 50.1396 72.4029C50.1076 72.4349 50.0657 72.451 50.0237 72.451Z" fill="#241726"/>
<path d="M5.83694 67.4599C5.70803 67.4599 5.57866 67.4502 5.45194 67.4313C5.36225 67.4182 5.30037 67.3344 5.31366 67.2449C5.32709 67.155 5.41069 67.0938 5.50037 67.1066C5.70131 67.1361 5.90881 67.1383 6.11194 67.1152C6.20225 67.1058 6.2835 67.1694 6.29381 67.2596C6.30428 67.3497 6.23959 67.4311 6.14944 67.4418C6.04569 67.4538 5.94147 67.4599 5.83694 67.4599ZM6.76866 67.293C6.701 67.293 6.63741 67.251 6.61381 67.1833C6.58366 67.0977 6.6285 67.0041 6.71413 66.9739C6.90272 66.9075 7.09366 66.8191 7.28194 66.711C7.36069 66.6661 7.461 66.6927 7.50616 66.7716C7.55131 66.8502 7.52413 66.9505 7.44553 66.9958C7.23991 67.1138 7.03053 67.2107 6.82319 67.2838C6.80522 67.2902 6.78678 67.293 6.76866 67.293ZM4.84694 67.2524C4.82522 67.2524 4.80287 67.2479 4.78131 67.2386C4.57569 67.1488 4.37444 67.0314 4.18334 66.8894C4.11053 66.8352 4.09553 66.7325 4.14944 66.6597C4.20366 66.5866 4.30647 66.5719 4.37928 66.6257C4.55037 66.7527 4.72975 66.8579 4.91288 66.9377C4.996 66.9739 5.03397 67.0708 4.99756 67.1538C4.97069 67.2155 4.91037 67.2524 4.84694 67.2524ZM7.90584 66.6478C7.85741 66.6478 7.80959 66.6268 7.77709 66.586C7.72069 66.5147 7.73256 66.4114 7.8035 66.355C7.96569 66.2261 8.12381 66.0824 8.2735 65.9278C8.33663 65.8624 8.44053 65.8611 8.50569 65.9239C8.571 65.9871 8.57256 66.091 8.50959 66.1561C8.34991 66.321 8.18116 66.4743 8.00787 66.6122C7.97772 66.6363 7.94162 66.6478 7.90584 66.6478ZM3.79319 66.4836C3.74944 66.4836 3.70584 66.4663 3.67334 66.4316C3.52584 66.2744 3.38162 66.0977 3.24491 65.9066C3.19209 65.8328 3.20912 65.7302 3.28287 65.6772C3.35694 65.6246 3.45928 65.6416 3.51209 65.7153C3.64037 65.895 3.77522 66.0605 3.91287 66.2071C3.97506 66.2732 3.97178 66.3771 3.90569 66.4389C3.87397 66.4688 3.8335 66.4836 3.79319 66.4836ZM8.81881 65.7071C8.78428 65.7071 8.74959 65.6961 8.72006 65.6736C8.64756 65.6191 8.63334 65.5161 8.68803 65.4436C8.81787 65.2718 8.936 65.0933 9.03866 64.9135C9.08334 64.8349 9.18366 64.8077 9.26272 64.8522C9.34147 64.8974 9.36881 64.9975 9.32381 65.0764C9.21413 65.2685 9.08834 65.4588 8.95006 65.6419C8.91772 65.6847 8.8685 65.7071 8.81881 65.7071ZM3.02662 65.4213C2.96912 65.4213 2.91303 65.3908 2.88303 65.3369C2.77022 65.1349 2.67459 64.9261 2.59834 64.7169C2.56725 64.6316 2.61116 64.5377 2.69647 64.5066C2.78162 64.4755 2.876 64.5194 2.90694 64.6047C2.97709 64.7975 3.06569 64.9902 3.16975 65.1772C3.21397 65.2564 3.18553 65.3564 3.10631 65.4005C3.08116 65.4146 3.05366 65.4213 3.02662 65.4213ZM2.58272 64.1916C2.50428 64.1916 2.43506 64.1355 2.421 64.0557C2.38412 63.843 2.36537 63.6269 2.36537 63.4122L2.52991 63.3735L2.69397 63.3939C2.69381 63.6079 2.711 63.8055 2.74459 63.9991C2.76022 64.0886 2.70037 64.1736 2.61084 64.1889C2.60147 64.191 2.59194 64.1916 2.58272 64.1916ZM2.59616 62.8853C2.58584 62.8853 2.57569 62.8844 2.56522 62.8825C2.476 62.8655 2.41772 62.7793 2.43475 62.6903C2.47694 62.4703 2.53881 62.2494 2.61912 62.0325C2.65069 61.9475 2.74444 61.9039 2.83022 61.9357C2.91522 61.9671 2.95866 62.0618 2.92709 62.1468C2.85319 62.3463 2.796 62.5499 2.75741 62.7519C2.74225 62.8305 2.6735 62.8853 2.59616 62.8853ZM3.04709 61.6577C3.02006 61.6577 2.99287 61.651 2.96772 61.6372C2.88834 61.5933 2.85959 61.4932 2.90366 61.4139C3.01194 61.2186 3.13616 61.0272 3.27303 60.8447C3.32725 60.7722 3.43053 60.7572 3.50287 60.8118C3.57553 60.8663 3.59022 60.9693 3.53569 61.0418C3.40803 61.2124 3.29194 61.391 3.19116 61.5732C3.161 61.6272 3.10475 61.6577 3.04709 61.6577ZM6.30694 61.3238C6.30366 61.3238 6.30037 61.3238 6.29694 61.3235C6.08084 61.3107 5.85272 61.2757 5.61928 61.2196C5.53131 61.1985 5.47694 61.1096 5.49803 61.0213C5.51912 60.9335 5.60663 60.8796 5.69631 60.9C5.91084 60.9518 6.11959 60.9838 6.31663 60.9957C6.40709 61.0011 6.47616 61.0788 6.47069 61.1693C6.46553 61.2564 6.39319 61.3238 6.30694 61.3238ZM6.95975 61.2791C6.88506 61.2791 6.81741 61.2278 6.79991 61.1518C6.77959 61.0636 6.83475 60.9753 6.92303 60.9549C7.13787 60.9052 7.2985 60.8163 7.38725 60.6977C7.44131 60.6249 7.54444 60.6099 7.61709 60.6643C7.68975 60.7185 7.70459 60.8214 7.65038 60.8939C7.51256 61.0786 7.29272 61.2066 6.99694 61.275C6.98444 61.2778 6.97194 61.2791 6.95975 61.2791ZM5.03225 61.0239C5.01194 61.0239 4.991 61.02 4.971 61.0121C4.75975 60.9271 4.55413 60.828 4.35959 60.7171C4.28069 60.6722 4.25334 60.5718 4.29819 60.4928C4.34287 60.4139 4.44319 60.3868 4.52225 60.4316C4.70413 60.5352 4.89616 60.6282 5.09366 60.7074C5.17787 60.741 5.2185 60.8369 5.18475 60.921C5.15881 60.985 5.09709 61.0239 5.03225 61.0239ZM3.831 60.6093C3.78975 60.6093 3.7485 60.5938 3.71647 60.5627C3.65147 60.4996 3.65006 60.3957 3.71319 60.3305C3.72334 60.3202 3.73334 60.31 3.7435 60.2997C3.58084 60.1699 3.4285 60.0291 3.28944 59.8808C3.22741 59.8147 3.23069 59.7108 3.29678 59.6489C3.36334 59.5868 3.46694 59.5899 3.52897 59.6563C3.66741 59.8038 3.82053 59.9433 3.98428 60.0713C4.06022 60.0039 4.13803 59.9388 4.21741 59.8766C4.28881 59.8202 4.39209 59.833 4.44803 59.9043C4.50412 59.9755 4.49178 60.0788 4.42037 60.1346C4.25475 60.2647 4.096 60.4078 3.94834 60.5596C3.91647 60.5925 3.87381 60.6093 3.831 60.6093ZM7.60194 60.333C7.52991 60.333 7.46381 60.2852 7.44381 60.2124C7.42194 60.1338 7.3885 60.0491 7.34397 59.961C7.29537 59.8647 7.23741 59.7788 7.17131 59.7057C7.11053 59.6383 7.11584 59.5347 7.18319 59.4738C7.25006 59.4135 7.35428 59.4183 7.41506 59.4857C7.50069 59.5807 7.57553 59.6907 7.63709 59.8128C7.69147 59.9207 7.73287 60.0255 7.76038 60.1252C7.78459 60.2124 7.73334 60.3028 7.64584 60.3272C7.63131 60.3311 7.61662 60.333 7.60194 60.333ZM4.86241 59.801C4.80569 59.801 4.75053 59.7714 4.72022 59.7189C4.67475 59.6407 4.70162 59.54 4.78006 59.4947C4.98631 59.3753 5.19459 59.2769 5.39959 59.2022C5.48491 59.1718 5.57881 59.215 5.61022 59.3C5.64131 59.3853 5.59741 59.4796 5.51225 59.5107C5.32522 59.5789 5.13444 59.6691 4.94475 59.7788C4.9185 59.7939 4.89022 59.801 4.86241 59.801ZM3.00334 59.418C2.94991 59.418 2.89756 59.3921 2.86584 59.3439C2.73959 59.1518 2.63147 58.9478 2.54397 58.738C2.50897 58.6543 2.54866 58.5582 2.63241 58.5232C2.716 58.4894 2.81241 58.5277 2.84709 58.6116C2.92678 58.8027 3.02537 58.9885 3.14037 59.1636C3.19006 59.2393 3.16912 59.3413 3.09319 59.391C3.06553 59.4094 3.03428 59.418 3.00334 59.418ZM6.7435 59.4168C6.72803 59.4168 6.71256 59.4146 6.69694 59.41C6.52459 59.3591 6.32366 59.3436 6.11084 59.3668C6.01897 59.3757 5.93959 59.3116 5.92975 59.2211C5.91991 59.131 5.98506 59.0502 6.07522 59.0402C6.33303 59.0119 6.57616 59.0319 6.78991 59.095C6.87694 59.1207 6.92647 59.2121 6.90084 59.2989C6.87975 59.3705 6.81428 59.4168 6.7435 59.4168ZM2.50178 58.2133C2.42569 58.2133 2.35741 58.16 2.34131 58.0829C2.29522 57.8629 2.2685 57.6341 2.26178 57.4028C2.25928 57.3121 2.33053 57.2364 2.42116 57.2338C2.51178 57.2305 2.58741 57.3027 2.59022 57.3932C2.59631 57.6052 2.62069 57.8146 2.66272 58.0153C2.68131 58.1043 2.62444 58.1911 2.53569 58.2097C2.52428 58.2124 2.51287 58.2133 2.50178 58.2133ZM2.43553 56.9055C2.43241 56.9055 2.42944 56.9055 2.42631 56.9052C2.33569 56.9003 2.26631 56.8229 2.27147 56.7324C2.28412 56.5024 2.30741 56.2772 2.34053 56.0633C2.35459 55.9741 2.4385 55.9128 2.52803 55.9264C2.61772 55.9405 2.67912 56.0243 2.66522 56.1141C2.63366 56.3171 2.61147 56.5314 2.59928 56.7503C2.59444 56.8378 2.52209 56.9055 2.43553 56.9055ZM2.64147 55.6121C2.62662 55.6121 2.61147 55.6102 2.59662 55.606C2.50944 55.5813 2.45866 55.4905 2.48334 55.4033C2.54709 55.1775 2.62537 54.9624 2.716 54.7635C2.75366 54.6807 2.85147 54.6449 2.9335 54.6821C3.01616 54.7196 3.05256 54.8171 3.01491 54.8996C2.93116 55.0836 2.8585 55.2832 2.79928 55.4925C2.77897 55.5649 2.71303 55.6121 2.64147 55.6121ZM4.56928 54.5247C4.56319 54.5247 4.55709 54.5244 4.55084 54.5238C4.31944 54.4978 4.09194 54.4443 3.87459 54.3641C3.78944 54.333 3.746 54.2383 3.77725 54.1533C3.80881 54.0683 3.90381 54.0247 3.98819 54.0561C4.18069 54.1271 4.38225 54.1744 4.58741 54.1972C4.67756 54.2075 4.74241 54.2886 4.73241 54.3788C4.72287 54.4625 4.65178 54.5247 4.56928 54.5247ZM5.22413 54.5141C5.14428 54.5141 5.07428 54.4557 5.06194 54.3746C5.04834 54.2847 5.10991 54.201 5.19959 54.1875C5.42069 54.1539 5.61647 54.0872 5.751 53.9989C5.82662 53.9496 5.92866 53.971 5.97819 54.0468C6.02787 54.1224 6.00663 54.2244 5.93053 54.2741C5.75506 54.3886 5.51928 54.471 5.24881 54.5121C5.24069 54.5135 5.23241 54.5141 5.22413 54.5141ZM3.18991 54.426C3.15725 54.426 3.12397 54.4163 3.09522 54.3958C3.02116 54.3435 3.0035 54.2408 3.056 54.1668C3.09756 54.108 3.14084 54.051 3.18537 53.9961C3.02272 53.8779 2.871 53.7414 2.73366 53.5897C2.67272 53.5224 2.67803 53.4185 2.74522 53.3575C2.81241 53.2972 2.91631 53.3021 2.97709 53.3691C3.10741 53.5132 3.25209 53.6418 3.40756 53.7511C3.44319 53.7161 3.47944 53.6822 3.51647 53.6494C3.58397 53.5888 3.68772 53.5952 3.74819 53.6632C3.80834 53.7311 3.80209 53.835 3.73428 53.895C3.58537 54.0272 3.44725 54.1824 3.32428 54.3566C3.29225 54.4019 3.24147 54.426 3.18991 54.426ZM5.99913 53.7553C5.95069 53.7553 5.90287 53.7341 5.87037 53.6935C5.85897 53.6791 5.84569 53.6646 5.83069 53.6502C5.71897 53.5436 5.56975 53.4622 5.40069 53.415C5.3135 53.3907 5.26225 53.3002 5.28662 53.213C5.311 53.1255 5.40147 53.0741 5.48881 53.0988C5.70928 53.16 5.906 53.2688 6.05787 53.4132C6.08491 53.4394 6.10772 53.4641 6.12741 53.4888C6.18366 53.56 6.17194 53.6633 6.101 53.7197C6.071 53.7438 6.03491 53.7553 5.99913 53.7553ZM4.1685 53.5716C4.10756 53.5716 4.04912 53.5375 4.02084 53.4793C3.981 53.3978 4.01491 53.2997 4.09631 53.2599C4.31506 53.153 4.54241 53.0838 4.77225 53.0533C4.86397 53.0399 4.94459 53.105 4.95647 53.1947C4.96834 53.2846 4.90506 53.3672 4.81522 53.3791C4.62053 53.4047 4.42709 53.4638 4.24038 53.5549C4.21709 53.5661 4.19256 53.5716 4.1685 53.5716ZM2.471 53.1132C2.41444 53.1132 2.35928 53.0839 2.32881 53.0314C2.21866 52.8416 2.12147 52.6327 2.04037 52.4111C2.00912 52.3261 2.05272 52.2319 2.13787 52.2003C2.22366 52.1696 2.31725 52.2129 2.34866 52.2982C2.42334 52.5018 2.51241 52.693 2.61303 52.8664C2.65866 52.945 2.63178 53.0454 2.55334 53.091C2.52741 53.1061 2.49897 53.1132 2.471 53.1132ZM2.01303 51.8886C1.93741 51.8886 1.86928 51.836 1.85272 51.7591C1.83959 51.6982 1.82725 51.636 1.81569 51.5727C1.78569 51.4085 1.76178 51.2494 1.74397 51.0958C1.73334 51.0057 1.79803 50.9243 1.88819 50.9136C1.98053 50.9047 2.05959 50.9682 2.07022 51.058C2.08741 51.2046 2.10991 51.3566 2.13866 51.5138C2.14959 51.5738 2.16131 51.6321 2.17381 51.6899C2.19287 51.7783 2.13662 51.866 2.04787 51.8849C2.03616 51.8874 2.02459 51.8886 2.01303 51.8886ZM1.86491 50.586C1.77491 50.586 1.70162 50.5135 1.70069 50.4233L1.70053 50.3771C1.70053 50.1599 1.7135 49.9475 1.73897 49.7466C1.75053 49.6564 1.83334 49.5936 1.92256 49.6043C2.01256 49.6158 2.07616 49.6978 2.06475 49.7877C2.04084 49.9757 2.02881 50.1738 2.02881 50.3772L2.02897 50.4202C2.02991 50.5107 1.95709 50.585 1.86647 50.586C1.866 50.586 1.86537 50.586 1.86491 50.586ZM2.03631 49.2899C2.02069 49.2899 2.00491 49.2877 1.98928 49.2832C1.90241 49.2569 1.85303 49.1655 1.87897 49.0785C1.946 48.8546 2.03287 48.6403 2.13741 48.4422C2.17975 48.3621 2.27881 48.3316 2.35928 48.3736C2.43944 48.416 2.47022 48.5153 2.42787 48.5955C2.33319 48.7747 2.25428 48.9691 2.1935 49.1728C2.17225 49.2439 2.10709 49.2899 2.03631 49.2899ZM2.64678 48.1385C2.60975 48.1385 2.57241 48.126 2.54178 48.1004C2.47225 48.0422 2.46272 47.9386 2.521 47.8691C2.66756 47.6933 2.83428 47.5318 3.01647 47.3886C3.08787 47.3332 3.19084 47.345 3.24694 47.4164C3.30303 47.4877 3.29053 47.591 3.21912 47.6471C3.05506 47.7757 2.90506 47.9213 2.77303 48.0794C2.74069 48.1183 2.69397 48.1385 2.64678 48.1385ZM3.67241 47.3305C3.61225 47.3305 3.55444 47.2975 3.52553 47.24C3.48475 47.1589 3.51756 47.0603 3.5985 47.0197C3.96631 46.8347 4.24334 46.7766 4.25491 46.7741C4.34428 46.7552 4.43037 46.8128 4.44866 46.9018C4.46694 46.9905 4.40991 47.0775 4.32116 47.0958C4.31881 47.0964 4.07225 47.1491 3.74616 47.313C3.72241 47.3252 3.69709 47.3305 3.67241 47.3305Z" fill="#241726"/>
<path d="M73.2671 47.743C73.2624 47.743 73.2575 47.7427 73.253 47.7424C73.025 47.7229 72.796 47.6732 72.5722 47.5943C72.4868 47.5641 72.4419 47.4702 72.4721 47.3849C72.5022 47.2993 72.5955 47.2537 72.6816 47.2845C72.879 47.354 73.0807 47.398 73.2808 47.4154C73.3713 47.423 73.4382 47.5026 73.4305 47.593C73.4233 47.6787 73.3515 47.743 73.2671 47.743ZM73.9205 47.7113C73.8429 47.7113 73.7738 47.6562 73.7591 47.577C73.7425 47.4877 73.8016 47.4021 73.8908 47.3859C74.0875 47.3493 74.2847 47.2865 74.4766 47.1988C74.5594 47.1613 74.6563 47.1976 74.6943 47.2799C74.7318 47.3627 74.6955 47.4598 74.613 47.4977C74.3966 47.5965 74.1738 47.6674 73.9505 47.7085C73.9404 47.7104 73.9304 47.7113 73.9205 47.7113ZM72.0361 47.3188C72.0068 47.3188 71.9769 47.3109 71.95 47.2945C71.7602 47.1771 71.576 47.0382 71.4024 46.8807C71.3352 46.8201 71.33 46.7162 71.391 46.6488C71.4516 46.5815 71.5558 46.5763 71.623 46.6376C71.7816 46.7813 71.9497 46.9084 72.1225 47.0148C72.1997 47.0626 72.2236 47.1637 72.176 47.2409C72.145 47.2912 72.0911 47.3188 72.0361 47.3188ZM75.1102 47.1802C75.0593 47.1802 75.009 47.1565 74.9769 47.1123C74.9238 47.0385 74.9404 46.9359 75.014 46.8829C75.1755 46.7662 75.3371 46.6285 75.4941 46.4737C75.5591 46.4102 75.6629 46.4109 75.7263 46.4755C75.79 46.5401 75.7893 46.644 75.7247 46.7077C75.5557 46.8741 75.3815 47.0227 75.2061 47.149C75.1771 47.1702 75.1435 47.1802 75.1102 47.1802ZM71.0655 46.4432C71.0168 46.4432 70.9686 46.4216 70.9363 46.3804C70.79 46.1943 70.6641 46.0007 70.5618 45.8054C70.5197 45.7249 70.5507 45.6257 70.631 45.5834C70.7115 45.542 70.8105 45.5724 70.8525 45.6526C70.9457 45.8305 71.0607 46.0073 71.1944 46.1776C71.2505 46.2488 71.238 46.3521 71.1668 46.4082C71.1368 46.4316 71.101 46.4432 71.0655 46.4432ZM76.0483 46.2671C76.0122 46.2671 75.9758 46.2552 75.9455 46.2309C75.8749 46.1741 75.8638 46.0705 75.9205 45.9999C76.0029 45.8973 76.0854 45.7885 76.1675 45.6738C76.213 45.6099 76.2557 45.5465 76.2957 45.4837C76.3449 45.4074 76.4463 45.3849 76.5224 45.4334C76.599 45.4821 76.6213 45.5838 76.5727 45.6601C76.5294 45.728 76.4835 45.796 76.4347 45.8645C76.3488 45.9851 76.2625 46.0988 76.1763 46.206C76.144 46.2463 76.0965 46.2671 76.0483 46.2671ZM76.7397 45.1555C76.7188 45.1555 76.6972 45.1513 76.6768 45.143C76.593 45.108 76.5533 45.0123 76.588 44.9282C76.6702 44.731 76.7304 44.5309 76.7671 44.3335C76.7838 44.2443 76.8685 44.1854 76.9588 44.2023C77.048 44.219 77.1066 44.3046 77.0902 44.3937C77.0491 44.6137 76.9822 44.836 76.8915 45.0545C76.8652 45.1173 76.8041 45.1555 76.7397 45.1555ZM76.9729 43.8745C76.8861 43.8745 76.8136 43.8065 76.809 43.7188C76.7983 43.5149 76.7636 43.3102 76.7054 43.1104C76.68 43.0235 76.73 42.9324 76.8171 42.9068C76.9041 42.8821 76.9952 42.9315 77.0205 43.0187C77.0858 43.2429 77.125 43.4726 77.1369 43.7015C77.1416 43.7923 77.0719 43.8696 76.9815 43.874C76.9786 43.8745 76.9758 43.8745 76.9729 43.8745ZM76.6146 42.6224C76.5558 42.6224 76.4991 42.591 76.4694 42.5355C76.3743 42.357 76.2585 42.1805 76.1254 42.0115C76.0694 41.9399 76.0816 41.8366 76.1529 41.7809C76.2241 41.7245 76.3277 41.7376 76.3835 41.808C76.5286 41.9924 76.655 42.1852 76.7594 42.3809C76.8021 42.461 76.7718 42.5605 76.6918 42.6032C76.6669 42.6163 76.6405 42.6224 76.6146 42.6224ZM73.429 41.8655C73.3397 41.8655 73.2665 41.794 73.2647 41.7046C73.263 41.6141 73.335 41.5391 73.4255 41.5373C73.6088 41.5337 73.8105 41.4982 74.025 41.4318C74.1127 41.4046 74.2036 41.4537 74.2305 41.5402C74.2572 41.6268 74.2088 41.7188 74.1222 41.7455C73.8782 41.8209 73.646 41.8616 73.4321 41.8659C73.4311 41.8655 73.43 41.8655 73.429 41.8655ZM72.8011 41.7112C72.7691 41.7112 72.7366 41.7018 72.7083 41.6823C72.5004 41.5393 72.3858 41.3176 72.3858 41.0585C72.3858 41.0259 72.3875 40.9921 72.3913 40.9577C72.4008 40.8673 72.4802 40.8005 72.5721 40.8118C72.6622 40.8215 72.7275 40.9023 72.7179 40.9924C72.7155 41.0152 72.7143 41.0373 72.7143 41.0585C72.7143 41.2105 72.7749 41.3295 72.8944 41.4116C72.9691 41.4629 72.988 41.5652 72.9368 41.6399C72.9047 41.6865 72.8533 41.7112 72.8011 41.7112ZM75.8099 41.5913C75.7696 41.5913 75.7293 41.5766 75.6977 41.5471C75.5597 41.4176 75.4119 41.2954 75.2575 41.183C75.0904 41.2955 74.9216 41.3963 74.7549 41.4826C74.6741 41.5243 74.575 41.4926 74.5336 41.412C74.4921 41.3315 74.5235 41.2323 74.6041 41.1907C74.7835 41.098 74.9658 40.9871 75.1463 40.861C75.1966 40.8257 75.2605 40.8232 75.3125 40.8482C75.3415 40.8504 75.3704 40.8601 75.3957 40.878C75.581 41.0088 75.7582 41.1535 75.9222 41.3071C75.9885 41.3693 75.9918 41.4732 75.9297 41.5393C75.8972 41.574 75.8536 41.5913 75.8099 41.5913ZM74.7396 40.8351C74.7143 40.8351 74.6885 40.8293 74.6643 40.8168C74.47 40.716 74.2749 40.634 74.0843 40.5727C73.9979 40.5451 73.9504 40.4527 73.9782 40.3662C74.0061 40.2799 74.099 40.2324 74.1847 40.2604C74.3927 40.3271 74.6049 40.4163 74.8154 40.5249C74.8958 40.5666 74.9272 40.6657 74.8855 40.7462C74.8563 40.8026 74.7991 40.8351 74.7396 40.8351ZM75.7565 40.7545C75.7107 40.7545 75.6652 40.7355 75.6329 40.6984C75.5732 40.6301 75.58 40.5262 75.6485 40.4665C75.8057 40.3291 75.9615 40.1801 76.1119 40.0226C76.1744 39.9571 76.2788 39.9549 76.344 40.0174C76.4096 40.0799 76.4119 40.1838 76.3493 40.2496C76.1922 40.4138 76.0293 40.5701 75.8646 40.714C75.8332 40.741 75.7947 40.7545 75.7565 40.7545ZM72.8582 40.5826C72.804 40.5826 72.7508 40.5557 72.7196 40.5065C72.6708 40.4302 72.6933 40.3285 72.7696 40.2798C72.934 40.1752 73.1449 40.122 73.3965 40.122C73.4257 40.1195 73.4644 40.1229 73.4997 40.1248C73.5904 40.1293 73.6599 40.2065 73.6555 40.297C73.6508 40.3877 73.5733 40.4612 73.4832 40.4526C73.4538 40.451 73.4216 40.448 73.3969 40.4504C73.2111 40.4504 73.0555 40.4873 72.9465 40.5568C72.919 40.5743 72.8883 40.5826 72.8582 40.5826ZM76.6641 39.8074C76.6277 39.8074 76.5911 39.7952 76.5607 39.7705C76.4902 39.7135 76.4797 39.6099 76.5369 39.5396C76.6691 39.377 76.8 39.2038 76.9263 39.0249C76.9785 38.9509 77.0815 38.9329 77.1552 38.9851C77.2293 39.0374 77.2471 39.1399 77.1949 39.214C77.0644 39.399 76.9288 39.5784 76.7918 39.7468C76.7591 39.787 76.7119 39.8074 76.6641 39.8074ZM77.421 38.7352C77.3916 38.7352 77.3619 38.7276 77.3352 38.7109C77.2579 38.6634 77.2336 38.5624 77.2813 38.4851C77.361 38.3552 77.44 38.2209 77.518 38.0816C77.5469 38.0298 77.5744 37.9784 77.6005 37.9268C77.6418 37.846 77.7407 37.8141 77.8211 37.8543C77.9021 37.8954 77.9346 37.9941 77.8936 38.0749C77.8654 38.1304 77.8358 38.1862 77.8046 38.242C77.7243 38.3849 77.6432 38.5232 77.5611 38.657C77.53 38.7073 77.4761 38.7352 77.421 38.7352ZM77.9943 37.5576C77.9783 37.5576 77.9621 37.5554 77.946 37.5502C77.8593 37.5237 77.8107 37.432 77.8372 37.3449C77.8999 37.1416 77.9418 36.9363 77.9618 36.7349C77.9705 36.6445 78.048 36.581 78.1413 36.5874C78.2315 36.5963 78.2975 36.677 78.2885 36.767C78.2663 36.9905 78.2202 37.2173 78.1511 37.4418C78.1294 37.5123 78.0646 37.5576 77.9943 37.5576ZM78.1182 36.2599C78.0361 36.2599 77.9652 36.1987 77.9552 36.1149C77.9311 35.9132 77.8844 35.7096 77.8165 35.5107C77.7871 35.4248 77.833 35.3315 77.9188 35.302C78.0043 35.2734 78.0982 35.3187 78.1272 35.4043C78.2027 35.6252 78.2546 35.8513 78.2813 36.0765C78.2921 36.1663 78.2277 36.248 78.1377 36.2587C78.1313 36.2596 78.1246 36.2599 78.1182 36.2599ZM77.7021 35.0248C77.6449 35.0248 77.5894 34.9949 77.5591 34.9413C77.4586 34.7643 77.3396 34.5888 77.2047 34.4198C77.1482 34.3488 77.1597 34.2455 77.2305 34.1891C77.3016 34.133 77.4049 34.144 77.4613 34.2151C77.6069 34.3976 77.736 34.5874 77.8449 34.7796C77.8896 34.8585 77.8619 34.9585 77.783 35.0032C77.7572 35.018 77.7296 35.0248 77.7021 35.0248ZM76.8888 33.9971C76.8479 33.9971 76.8071 33.982 76.775 33.9515C76.625 33.8079 76.4618 33.669 76.2893 33.5387C76.2169 33.4838 76.2025 33.3809 76.2572 33.3084C76.3118 33.2359 76.4147 33.2221 76.4872 33.2763C76.6699 33.4143 76.8432 33.5618 77.0025 33.7141C77.068 33.777 77.0702 33.8809 77.0074 33.9463C76.975 33.9802 76.9319 33.9971 76.8888 33.9971ZM72.9713 33.7765C72.6515 33.7765 72.4497 33.561 72.4318 33.2001C72.4272 33.1096 72.4971 33.0327 72.5877 33.0282C72.6744 33.0135 72.7554 33.0934 72.7599 33.1841C72.773 33.448 72.9069 33.448 72.9713 33.448C73.0605 33.448 73.144 33.5193 73.1461 33.6084C73.148 33.6976 73.0891 33.772 72.9999 33.7759C72.9974 33.7762 72.9738 33.7765 72.9713 33.7765ZM73.5971 33.5391C73.5435 33.5391 73.4911 33.5132 73.4596 33.4651C73.4099 33.3891 73.4308 33.2874 73.5068 33.2377C73.6644 33.1341 73.8258 33.0007 73.9865 32.8404C74.0508 32.777 74.1547 32.7766 74.2186 32.8407C74.2825 32.9052 74.2825 33.0091 74.2183 33.0732C74.0421 33.249 73.8633 33.3968 73.6871 33.5123C73.6594 33.5305 73.6282 33.5391 73.5971 33.5391ZM75.8436 33.2054C75.8149 33.2054 75.7858 33.198 75.7594 33.182C75.5754 33.072 75.385 32.9713 75.1941 32.8834C75.1118 32.8455 75.0758 32.748 75.1138 32.6655C75.1516 32.5827 75.2483 32.5465 75.3318 32.5851C75.5333 32.678 75.734 32.784 75.9282 32.9004C76.006 32.947 76.0313 33.0476 75.9847 33.1255C75.954 33.1768 75.8994 33.2054 75.8436 33.2054ZM72.7708 32.7405C72.7313 32.7405 72.6919 32.7265 72.6605 32.6979C72.5933 32.637 72.5883 32.533 72.6493 32.466C72.8046 32.2948 73.0366 32.1896 73.339 32.1534C73.4311 32.1421 73.5108 32.2066 73.5218 32.2968C73.5325 32.3866 73.4683 32.4684 73.3783 32.4793C73.1596 32.5059 72.9916 32.5774 72.8922 32.6868C72.8599 32.7223 72.8154 32.7405 72.7708 32.7405ZM74.6513 32.6579C74.6344 32.6579 74.6175 32.6554 74.6007 32.6499C74.5736 32.6413 74.5466 32.6326 74.5197 32.6246C74.4969 32.6227 74.4741 32.6163 74.4533 32.6048C74.2927 32.5585 74.1366 32.5237 73.988 32.5005C73.8985 32.4865 73.8371 32.4027 73.8511 32.3129C73.865 32.2237 73.9483 32.1635 74.0388 32.176C74.1777 32.1979 74.3218 32.2287 74.4697 32.2684C74.5699 32.1285 74.6646 31.9816 74.7519 31.8302C74.7972 31.7516 74.8979 31.7245 74.9763 31.7702C75.0549 31.8155 75.0818 31.9159 75.0365 31.9945C74.9571 32.1318 74.8721 32.2659 74.7825 32.3948C74.8136 32.4362 74.8249 32.4916 74.8077 32.5446C74.785 32.6135 74.7207 32.6579 74.6513 32.6579ZM75.1885 31.4891C75.1668 31.4891 75.1447 31.4849 75.1233 31.4757C75.04 31.4398 75.0019 31.3429 75.0379 31.2599C75.1219 31.0655 75.1955 30.8641 75.2569 30.6612C75.283 30.5746 75.3749 30.5255 75.4616 30.5515C75.5483 30.5777 75.5975 30.6691 75.5713 30.7562C75.5063 30.9713 75.4283 31.1846 75.3394 31.3902C75.3125 31.4523 75.2519 31.4891 75.1885 31.4891ZM75.5677 30.2348C75.558 30.2348 75.5483 30.2338 75.5383 30.2323C75.4491 30.2162 75.3899 30.1305 75.4058 30.0415C75.4435 29.833 75.4694 29.6201 75.4827 29.4087C75.4883 29.3182 75.5671 29.2451 75.6571 29.2551C75.7475 29.2609 75.8163 29.3388 75.8105 29.4293C75.7965 29.6535 75.769 29.879 75.7293 30.0999C75.7147 30.179 75.6457 30.2348 75.5677 30.2348ZM75.6411 28.9276C75.5574 28.9276 75.486 28.8641 75.4779 28.7791C75.4575 28.5668 75.4168 28.3626 75.3563 28.172C75.3288 28.0854 75.3766 27.993 75.4632 27.9657C75.55 27.9391 75.6421 27.9862 75.6694 28.0726C75.7368 28.2852 75.7825 28.5123 75.8047 28.7477C75.8133 28.8382 75.7472 28.9184 75.6569 28.927C75.6516 28.9271 75.6463 28.9276 75.6411 28.9276ZM75.2435 27.6909C75.188 27.6909 75.1338 27.6626 75.1029 27.612C74.998 27.4388 74.8705 27.2755 74.7236 27.126C74.6602 27.0612 74.6611 26.9573 74.7257 26.8938C74.7905 26.8301 74.894 26.831 74.958 26.8957C75.1224 27.0632 75.2658 27.247 75.3838 27.4413C75.4308 27.519 75.4061 27.6199 75.3285 27.6671C75.3018 27.683 75.2724 27.6909 75.2435 27.6909ZM74.3361 26.7562C74.3044 26.7562 74.2722 26.7468 74.2438 26.7276C74.0779 26.6146 73.8933 26.5098 73.6952 26.4165C73.6133 26.378 73.5782 26.2799 73.6168 26.198C73.6552 26.1155 73.7536 26.081 73.8354 26.1195C74.049 26.2202 74.2486 26.3334 74.4288 26.4562C74.5036 26.5071 74.5232 26.6095 74.4719 26.6843C74.4402 26.7312 74.3885 26.7562 74.3361 26.7562ZM73.154 26.1907C73.1369 26.1907 73.1197 26.188 73.1029 26.1827C72.9055 26.1179 72.6972 26.0615 72.4841 26.0146C72.3955 25.9954 72.3394 25.9077 72.3588 25.8193C72.378 25.7304 72.465 25.6743 72.5543 25.6938C72.7782 25.7429 72.9972 25.8023 73.205 25.8702C73.2911 25.8988 73.3382 25.9915 73.3099 26.0777C73.2874 26.1468 73.223 26.1907 73.154 26.1907ZM71.8705 25.906C71.8636 25.906 71.8566 25.9057 71.8494 25.9048C71.469 25.856 71.2132 25.8538 71.2105 25.8538C71.1199 25.8532 71.0469 25.7791 71.0474 25.6887C71.048 25.5982 71.1213 25.5254 71.2116 25.5254C71.223 25.5276 71.4775 25.5263 71.891 25.579C71.981 25.5905 72.0444 25.6726 72.033 25.7627C72.0227 25.8454 71.9519 25.906 71.8705 25.906Z" fill="#241726"/>
<path d="M64.617 35.8179C64.617 35.8179 61.1174 29.9382 62.4962 30.2622C63.8751 30.5863 64.9768 34.2955 64.9768 34.2955C64.9768 34.2955 65.1734 26.8696 66.1006 27.9861C67.0279 29.1027 66.1006 32.9046 66.1006 32.9046C66.1006 32.9046 66.0921 26.7769 67.2554 27.9861C68.4187 29.1954 67.2554 33.3683 67.2554 33.3683C67.2554 33.3683 68.4187 28.2207 68.9751 29.2182C69.5315 30.2155 68.1406 34.3885 68.1406 34.3885C68.1406 34.3885 70.0879 31.1315 70.4588 31.8791C70.8298 32.6266 67.2554 37.0777 67.2554 37.0777V40.2305L64.2459 39.703L64.617 35.8179Z" fill="#E38B72"/>
<path d="M66.3303 36.252C66.3158 36.252 66.301 36.2502 66.2863 36.2459C66.1991 36.2219 66.1478 36.1314 66.1719 36.0439C66.2522 35.7533 66.3842 34.9211 66.0338 34.5663C65.8366 34.3664 65.495 34.3286 65.0186 34.4541C64.9313 34.4784 64.8413 34.4248 64.818 34.337C64.7949 34.2495 64.8474 34.1597 64.9349 34.1366C65.5331 33.9791 65.9817 34.0464 66.268 34.3361C66.823 34.8989 66.5021 36.0819 66.4883 36.1319C66.4683 36.2047 66.4022 36.252 66.3303 36.252Z" fill="#241726"/>
<path d="M66.1007 33.0689C66.0135 33.0689 65.9409 33.0003 65.9368 32.912C65.9057 32.2298 66.0463 30.3305 66.0524 30.25C66.059 30.1595 66.1388 30.0903 66.2284 30.0983C66.3188 30.105 66.3866 30.1839 66.3799 30.2744C66.3785 30.2939 66.2348 32.2347 66.2649 32.8972C66.2691 32.9877 66.1988 33.0647 66.1084 33.0684C66.1059 33.0689 66.1034 33.0689 66.1007 33.0689Z" fill="#241726"/>
<path d="M67.2556 33.5318C67.2464 33.5318 67.237 33.5312 67.2276 33.5296C67.1381 33.5143 67.0782 33.4292 67.0935 33.3398L67.5915 30.4392C67.6068 30.35 67.6918 30.2898 67.7811 30.3051C67.8706 30.3204 67.9304 30.4054 67.9151 30.495L67.4171 33.3956C67.4035 33.4754 67.3342 33.5318 67.2556 33.5318Z" fill="#241726"/>
<path d="M63.3083 36.667C63.3083 36.667 63.4461 46.6573 62.7427 46.9356C62.0393 47.2139 55.2869 42.9996 55.2869 42.9996L39.5204 44.1834L23.7274 45.5006C23.7274 45.5006 8.86396 52.2906 8.72333 54.5415C8.58271 56.7923 16.056 60.9182 16.056 60.9182L19.5377 57.2782L12.8011 54.8164L21.7588 51.6048C19.9633 58.1243 19.3133 63.6086 19.3133 63.6086L32.0571 63.3945L35.4322 72.5417L39.3854 72.2032L40.138 63.2587L41.4238 63.2371L42.1783 72.2032L46.1315 72.5417L49.6155 63.0995L63.2772 62.87C63.2772 62.87 61.3201 55.6217 57.5869 47.9601C60.3866 48.7982 63.9724 49.8732 64.5433 50.0528C65.5002 50.3536 68.1091 38.1593 68.1091 38.1593L63.3083 36.667Z" fill="#DF4F3E"/>
<path d="M37.6111 41.3944L38.8006 62.1311L18.3178 62.1863L18.7398 66.3514L64.5442 64.9798L64.0915 60.7856L41.2959 61.7094C41.2959 61.7094 40.594 40.6078 39.9611 40.7133C39.3282 40.8188 37.6111 41.3944 37.6111 41.3944Z" fill="white"/>
<path d="M18.74 66.5156C18.6559 66.5156 18.585 66.4522 18.5765 66.3681L18.1545 62.2028C18.1498 62.1566 18.165 62.1108 18.1959 62.0761C18.227 62.0417 18.2711 62.0219 18.3175 62.0219L38.627 61.967L37.4472 41.4034C37.4428 41.3297 37.4887 41.262 37.5589 41.2386C37.6295 41.2148 39.2956 40.6578 39.9343 40.5513C39.98 40.5439 40.057 40.5653 40.0937 40.5955C40.7204 41.1086 41.2872 56.5328 41.4547 61.5384L64.0851 60.6213C64.1679 60.62 64.2458 60.6819 64.255 60.7678L64.7075 64.9619C64.7125 65.0075 64.6981 65.053 64.6679 65.0873C64.6379 65.122 64.5948 65.1422 64.5492 65.1438L18.745 66.5156C18.7432 66.5156 18.7415 66.5156 18.74 66.5156ZM18.4997 62.3497L18.8881 66.1827L64.362 64.8209L63.9451 60.9559L41.3028 61.8736C41.2612 61.8739 41.2167 61.8595 41.1845 61.8297C41.1525 61.7998 41.1337 61.7584 41.1322 61.7148C40.87 53.835 40.3314 41.9727 39.9007 40.8919C39.3378 41.0048 38.1597 41.3864 37.7822 41.5109L38.9647 62.1219C38.9672 62.1667 38.9512 62.2111 38.9203 62.2438C38.8895 62.2764 38.8464 62.2955 38.8012 62.2955L18.4997 62.3497Z" fill="#241726"/>
<path d="M23.5646 16.7635C23.5646 16.7635 35.1552 9.4946 40.501 13.7149C45.8466 17.9352 57.9824 27.9882 37.8432 34.559C17.704 41.1298 18.641 19.999 23.5646 16.7635Z" fill="#E38B72"/>
<path d="M24.0009 18.7871C24.0009 18.7871 17.5159 29.5598 27.2227 33.9207C36.9294 38.2817 28.8405 24.9929 36.0149 24.9226C43.1892 24.8523 42.6675 33.9595 45.7917 28.5098C50.223 20.7803 38.0038 14.8459 39.8325 14.5645C41.6613 14.2831 42.9236 13.794 43.4706 14.8642C45.0884 18.0293 64.0092 20.7725 61.8991 31.3232C59.7889 41.8739 53.3178 49.4704 34.7488 50.0331C16.1795 50.5961 11.1856 38.7793 15.9686 29.9167C20.7516 21.0542 18.24 19.5025 19.7875 19.3618C21.3349 19.2212 24.0009 18.7871 24.0009 18.7871Z" fill="#F4F1E3"/>
<path d="M36.7531 27.201C36.2017 27.201 34.6995 26.0377 34.0518 25.5143C33.9814 25.4576 33.9704 25.354 34.0273 25.2833C34.0845 25.2132 34.1875 25.2016 34.2584 25.259C35.1917 26.013 36.325 26.8 36.6751 26.8722C36.6476 26.354 35.6293 23.9216 34.6004 21.738C34.5618 21.656 34.597 21.5582 34.6789 21.5196C34.7612 21.4811 34.859 21.5157 34.8975 21.5982C35.5933 23.0744 37.1884 26.5621 36.9751 27.061C36.9486 27.1229 36.9009 27.1682 36.8408 27.1883C36.815 27.1968 36.7858 27.201 36.7531 27.201Z" fill="#241726"/>
<path d="M37.5386 32.1263C37.4378 32.1263 37.3199 32.0981 37.1858 32.0212C35.636 31.1334 34.0739 28.0329 34.0083 27.9015C33.9677 27.8204 34.0006 27.7215 34.0817 27.6812C34.1627 27.6404 34.2616 27.6738 34.3021 27.7546C34.3177 27.786 35.8852 30.8978 37.3491 31.7363C37.5116 31.829 37.5963 31.7973 37.646 31.7653C38.2497 31.374 38.1842 28.322 38.0011 26.4903C37.9921 26.4001 38.0578 26.3196 38.1481 26.3106C38.24 26.3006 38.3189 26.3673 38.328 26.4574C38.3785 26.9629 38.7936 31.4126 37.8246 32.0406C37.7542 32.0863 37.6585 32.1263 37.5386 32.1263Z" fill="#241726"/>
<path d="M28.5994 26.6384C26.6603 26.6384 25.6969 22.875 25.6561 22.7118C25.6339 22.624 25.6875 22.5348 25.7754 22.5126C25.8637 22.4911 25.9526 22.544 25.9747 22.6323C25.9844 22.6701 26.9545 26.4403 28.6872 26.3065C28.9797 26.285 29.1869 26.1703 29.3203 25.9556C29.8892 25.0415 28.9783 22.7564 28.9689 22.7336C28.935 22.6492 28.9756 22.5536 29.0598 22.5196C29.1431 22.4864 29.2395 22.5264 29.2734 22.6104C29.314 22.7104 30.2558 25.0736 29.5992 26.1287C29.409 26.4343 29.1103 26.6043 28.7114 26.6342C28.6737 26.6368 28.6364 26.6384 28.5994 26.6384Z" fill="#241726"/>
<path d="M40.0922 23.6999C40.0298 23.6999 39.9617 23.6929 39.887 23.6771C38.1445 23.3054 37.698 20.0876 37.6798 19.9507C37.668 19.8609 37.7311 19.7785 37.8209 19.7667C37.9106 19.7499 37.9933 19.8176 38.0053 19.9077C38.0095 19.9388 38.4387 23.0323 39.9555 23.3559C40.1852 23.4046 40.2827 23.3312 40.3347 23.2712C40.7714 22.7712 40.2358 20.6423 39.7956 19.4177C39.765 19.3324 39.8092 19.2385 39.8947 19.2077C39.9792 19.1776 40.0737 19.2215 40.1047 19.3068C40.2278 19.6493 41.2883 22.6785 40.582 23.4871C40.4917 23.5909 40.3381 23.6999 40.0922 23.6999Z" fill="#241726"/>
<path d="M27.468 30.3194C28.1844 29.8899 28.4169 28.9611 27.9875 28.2448C27.558 27.5285 26.6292 27.2959 25.9129 27.7254C25.1966 28.1548 24.964 29.0836 25.3935 29.7999C25.8229 30.5162 26.7517 30.7488 27.468 30.3194Z" fill="#DF4F3E"/>
<path d="M43.1541 25.0434C43.9893 25.0434 44.6663 24.3664 44.6663 23.5312C44.6663 22.6961 43.9893 22.019 43.1541 22.019C42.319 22.019 41.6419 22.6961 41.6419 23.5312C41.6419 24.3664 42.319 25.0434 43.1541 25.0434Z" fill="#DF4F3E"/>
<path d="M37.5572 12.2904C37.5572 12.2904 33.8892 6.35352 27.7425 3.25868C21.5956 0.163838 12.5925 10.7848 12.5925 10.7848L20.6814 8.53399C20.6814 8.53399 19.1547 16.0145 19.7876 16.8362C20.4204 17.6579 37.5572 12.2904 37.5572 12.2904Z" fill="#DF4F3E"/>
<path d="M11.8197 13.0373C13.0124 13.0373 13.9792 12.0705 13.9792 10.8778C13.9792 9.68512 13.0124 8.71826 11.8197 8.71826C10.627 8.71826 9.66019 9.68512 9.66019 10.8778C9.66019 12.0705 10.627 13.0373 11.8197 13.0373Z" fill="white"/>
<path d="M11.8199 13.2017C10.5386 13.2017 9.49612 12.1594 9.49612 10.8781C9.49612 9.59686 10.5386 8.5542 11.8199 8.5542C13.1011 8.5542 14.1436 9.59686 14.1436 10.8781C14.1436 12.1594 13.1011 13.2017 11.8199 13.2017ZM11.8199 8.88248C10.7196 8.88248 9.82441 9.77764 9.82441 10.8779C9.82441 11.9779 10.7196 12.8731 11.8199 12.8731C12.92 12.8731 13.8152 11.9779 13.8152 10.8779C13.8152 9.77764 12.92 8.88248 11.8199 8.88248Z" fill="#241726"/>
<path d="M18.7393 16.3944C18.7393 16.3944 39.2311 8.61878 40.9143 10.3803C42.5974 12.1419 43.4704 14.8644 43.4704 14.8644C43.4704 14.8644 19.6258 22.7047 19.1335 21.6685C18.641 20.6322 18.7393 16.3944 18.7393 16.3944Z" fill="white"/>
<path d="M19.47 21.9258C19.0738 21.9258 19.0243 21.8216 18.9849 21.7388C18.4816 20.6794 18.571 16.5652 18.575 16.3903C18.5766 16.3236 18.6185 16.2642 18.681 16.2405C20.7886 15.441 39.3241 8.47893 41.0327 10.2664C42.7224 12.0352 43.5904 14.7011 43.6265 14.8139C43.6541 14.8999 43.6071 14.9919 43.5215 15.0199C43.4618 15.0397 37.4897 17.0016 31.5341 18.8117C23.0707 21.3846 20.3721 21.9258 19.47 21.9258ZM19.2724 21.5778C20.2161 22.0441 34.3922 17.673 43.2608 14.7602C43.0488 14.1633 42.2054 11.9692 40.7957 10.4936C39.62 9.26299 27.1 13.4028 18.9016 16.5085C18.8907 17.1744 18.8552 20.6485 19.2724 21.5778Z" fill="#241726"/>
<path d="M20.3052 27.5867C21.1745 26.7174 21.1745 25.308 20.3052 24.4387C19.436 23.5695 18.0266 23.5695 17.1573 24.4387C16.288 25.308 16.288 26.7174 17.1573 27.5867C18.0266 28.4559 19.436 28.4559 20.3052 27.5867Z" fill="#E38B72"/>
<path d="M47.5176 20.032C48.747 20.032 49.7436 19.0354 49.7436 17.806C49.7436 16.5767 48.747 15.5801 47.5176 15.5801C46.2883 15.5801 45.2917 16.5767 45.2917 17.806C45.2917 19.0354 46.2883 20.032 47.5176 20.032Z" fill="#E38B72"/>
<path d="M19.3888 26.8947C19.3091 26.8947 19.2391 26.8367 19.2266 26.7555C19.0538 25.6394 18.7419 25.3202 18.511 25.2488C18.1503 25.1381 17.7547 25.5538 17.7505 25.5577C17.6889 25.6241 17.5852 25.6278 17.5185 25.5656C17.4522 25.5038 17.4483 25.4005 17.5102 25.3341C17.5319 25.3106 18.0486 24.7635 18.6063 24.9344C19.0735 25.0775 19.3913 25.6733 19.5511 26.7055C19.5649 26.795 19.5036 26.8789 19.4141 26.8928C19.4055 26.8941 19.397 26.8947 19.3888 26.8947Z" fill="#241726"/>
<path d="M47.1914 19.3025C47.1202 19.3025 47.0547 19.2559 47.0338 19.1842C46.73 18.1437 46.7567 17.375 47.1128 16.9003C47.4475 16.4539 47.9441 16.4487 47.9652 16.4487C48.0559 16.4487 48.1294 16.5222 48.1294 16.6129C48.1294 16.7034 48.0564 16.7765 47.9662 16.7772C47.9517 16.7775 47.6058 16.7858 47.372 17.102C47.0889 17.485 47.0809 18.1733 47.3491 19.0925C47.3744 19.1794 47.3245 19.2704 47.2375 19.2958C47.222 19.3003 47.2066 19.3025 47.1914 19.3025Z" fill="#241726"/>
<path d="M18.2188 5.60031C18.2188 5.60031 20.3289 8.39359 23.1424 7.33843C25.956 6.28343 24.9008 3.32921 26.7296 6.14265C28.5583 8.95609 33.1022 7.05187 33.0372 6.99359C32.9722 6.93531 29.4024 2.90703 26.378 1.99265C23.3535 1.07843 18.2188 5.60031 18.2188 5.60031Z" fill="#F4F1E3"/>
<path d="M18.3172 58.2275C18.3172 58.2275 21.3492 59.7794 20.3367 62.6021C19.3242 65.4246 13.7611 67.1127 14.8955 65.4549C15.5813 64.4525 18.6938 63.503 18.6938 63.503C18.6938 63.503 14.6177 64.8433 13.8433 63.9779C13.4185 63.503 17.7227 62.8127 17.8881 62.8102C18.0536 62.8079 15.4231 63.1386 14.7902 62.1866C14.1572 61.2346 17.8353 62.9755 18.3174 61.1291C18.7994 59.2827 17.4806 59.3882 17.4806 59.3882L18.3172 58.2275Z" fill="#E38B72"/>
<path d="M20.701 55.8603C20.701 55.8603 59.8549 52.9984 59.9252 53.2094C59.9955 53.4203 60.968 55.8809 60.968 55.8809L20.2774 57.8586L20.701 55.8603Z" fill="#241726"/>
<path d="M35.8516 53.5327L43.1885 52.9072V58.2279L36.5975 58.8913L35.8516 53.5327Z" fill="#E1AF01"/>
<path d="M37.6862 54.6974L41.3547 54.3848V57.0451L38.0592 57.3768L37.6862 54.6974Z" fill="#241726"/>
<path d="M20.681 8.69823C20.6091 8.69823 20.5432 8.65073 20.523 8.57792C20.4986 8.49073 20.5497 8.40026 20.6371 8.37589C21.588 8.11089 23.6496 8.22026 23.7369 8.22542C23.8275 8.23026 23.8968 8.30792 23.8918 8.39823C23.8869 8.4887 23.81 8.5612 23.719 8.55308C23.6982 8.55245 21.624 8.44214 20.7254 8.69198C20.7105 8.6962 20.6955 8.69823 20.681 8.69823Z" fill="#241726"/>
<path d="M35.6164 14.5396C35.5936 14.5396 35.5705 14.5348 35.5486 14.5249C35.466 14.4874 35.4296 14.3899 35.4672 14.3074C35.6467 13.9132 35.8786 13.6935 36.1564 13.6538C36.565 13.5974 36.8885 13.9649 36.9021 13.981C36.9611 14.0496 36.9533 14.1526 36.885 14.212C36.8167 14.2713 36.7132 14.2635 36.6535 14.1955C36.5925 14.126 36.3924 13.9521 36.2016 13.9791C36.0032 14.0084 35.8552 14.2479 35.7661 14.4435C35.7385 14.5041 35.6788 14.5396 35.6164 14.5396Z" fill="#241726"/>
<path d="M37.3622 15.5229C37.3394 15.5229 37.3163 15.5181 37.2944 15.5081C37.2118 15.4706 37.1755 15.3731 37.213 15.2906C37.3924 14.8963 37.6243 14.6767 37.9022 14.637C38.3108 14.5793 38.6343 14.9481 38.6479 14.9642C38.7069 15.0328 38.6991 15.1357 38.6308 15.1951C38.5626 15.2545 38.4591 15.2467 38.3993 15.1787C38.3383 15.1092 38.1366 14.9365 37.9474 14.9623C37.7488 14.9915 37.601 15.231 37.5119 15.4267C37.4843 15.4873 37.4247 15.5229 37.3622 15.5229Z" fill="#241726"/>
<path d="M33.568 15.0104C33.5452 15.0104 33.5221 15.0055 33.5002 14.9957C33.4177 14.9582 33.3813 14.8607 33.4188 14.7782C33.5982 14.384 33.8302 14.164 34.108 14.1243C34.5186 14.0666 34.84 14.4354 34.8536 14.4515C34.9127 14.5201 34.9049 14.623 34.8366 14.6824C34.7682 14.7418 34.6647 14.7344 34.605 14.666C34.5441 14.5965 34.3471 14.4177 34.1532 14.4499C33.9547 14.4788 33.8068 14.7183 33.7175 14.9143C33.69 14.9747 33.6303 15.0104 33.568 15.0104Z" fill="#241726"/>
<path d="M35.2972 15.9012C35.2744 15.9012 35.2515 15.8964 35.2294 15.8865C35.1468 15.849 35.1105 15.7515 35.148 15.669C35.3274 15.2748 35.5593 15.0548 35.8372 15.0151C36.2469 14.9564 36.5694 15.3262 36.5829 15.3423C36.6419 15.4109 36.6341 15.5139 36.5658 15.5732C36.4974 15.6326 36.394 15.6253 36.3343 15.5568C36.2733 15.4873 36.0761 15.3079 35.8824 15.3407C35.684 15.3696 35.536 15.6092 35.4469 15.8051C35.4193 15.8656 35.3597 15.9012 35.2972 15.9012Z" fill="#241726"/>
<path d="M33.1797 16.5872C33.1569 16.5872 33.1338 16.5824 33.1119 16.5725C33.0293 16.535 32.9929 16.4376 33.0305 16.3551C33.2099 15.9608 33.4419 15.7408 33.7197 15.7011C34.13 15.6424 34.4518 16.0122 34.4654 16.0283C34.5244 16.0969 34.5166 16.1999 34.4483 16.2593C34.3799 16.3186 34.2764 16.3111 34.2168 16.2429C34.1558 16.1733 33.9571 15.9949 33.7649 16.0268C33.5664 16.0557 33.4185 16.2952 33.3293 16.4911C33.3018 16.5518 33.2421 16.5872 33.1797 16.5872Z" fill="#241726"/>
<path d="M63.0397 36.0879L62.8542 37.819L68.5417 39.6426L69.2526 37.6643L63.0397 36.0879Z" fill="white"/>
<path d="M68.5417 39.8071C68.525 39.8071 68.5081 39.8046 68.4915 39.7994L62.8042 37.9755C62.7301 37.9514 62.6828 37.8789 62.6911 37.8013L62.8764 36.0704C62.8814 36.0232 62.9068 35.9802 62.9457 35.9533C62.9848 35.9261 63.0339 35.9171 63.08 35.9289L69.2929 37.5057C69.3378 37.5169 69.3759 37.5468 69.3975 37.5877C69.4193 37.6285 69.4226 37.6766 69.4072 37.7202L68.6962 39.6985C68.6722 39.765 68.6092 39.8071 68.5417 39.8071ZM63.0318 37.7035L68.4409 39.438L69.037 37.7796L63.1828 36.2936L63.0318 37.7035Z" fill="#241726"/>
<path d="M18.51 55.8989L14.6658 60.6188L16.2059 61.7095L20.5378 56.6055L18.51 55.8989Z" fill="white"/>
<path d="M16.2058 61.8736C16.173 61.8736 16.1397 61.8636 16.1109 61.8434L14.5706 60.7527C14.5336 60.7264 14.509 60.6859 14.5028 60.6408C14.4967 60.5959 14.5095 60.5503 14.5383 60.515L18.3826 55.7952C18.4262 55.7413 18.4987 55.7205 18.564 55.7439L20.5919 56.4505C20.643 56.4681 20.682 56.5102 20.6962 56.562C20.7105 56.6144 20.698 56.6705 20.6631 56.7116L16.3312 61.8155C16.2989 61.8538 16.2526 61.8736 16.2058 61.8736ZM14.904 60.5863L16.1781 61.4884L20.2578 56.6817L18.5648 56.0919L14.904 60.5863Z" fill="#241726"/>
<path d="M34.4696 48.895C34.2363 48.895 33.9908 48.8748 33.7329 48.8304C32.2752 48.5803 31.29 47.9815 30.6736 47.3095C30.6661 47.3187 30.6586 47.3281 30.6508 47.337C30.1466 47.9406 28.9915 48.857 26.9188 48.2068C25.0641 47.6254 24.2168 46.607 23.8963 45.6596C23.5038 46.1353 23.0199 46.5484 22.496 46.7418C21.9021 46.9612 21.011 46.9871 20.1468 45.8628C19.2465 44.6915 19.0821 43.7214 19.1535 43.0301C18.9291 43.0609 18.698 43.0718 18.4658 43.0584C17.4685 42.9996 16.7183 42.4898 16.3536 41.6224C15.7654 40.2235 16.258 38.8739 16.9385 38.0351C16.4718 37.7435 15.9266 37.1787 15.8005 36.107C15.6408 34.75 16.3804 33.5851 17.2269 32.8443C16.8327 32.5582 16.5255 32.1426 16.3499 31.6368C16.1274 30.9964 16.1491 30.4431 16.4143 29.9918C16.8566 29.2387 17.8111 29.0631 17.8516 29.0559C17.9413 29.0385 18.0258 29.0995 18.0416 29.1887C18.0575 29.2782 17.998 29.3632 17.9088 29.3792C17.9005 29.3807 17.0604 29.5379 16.6963 30.1598C16.4832 30.5239 16.471 30.9846 16.66 31.529C16.854 32.0871 17.1822 32.4239 17.4946 32.6268C17.8918 32.3267 18.2943 32.1226 18.624 32.0367C19.2268 31.8807 19.4124 32.1582 19.4647 32.2849C19.5635 32.5239 19.5383 32.7548 19.3938 32.9357C19.173 33.2115 18.6936 33.3331 18.1707 33.2423C17.9415 33.2032 17.7243 33.1298 17.5235 33.0268C16.7179 33.7045 15.978 34.8068 16.1266 36.0685C16.2419 37.0484 16.7482 37.5423 17.1607 37.7854C17.3722 37.5695 17.5921 37.4031 17.7963 37.2985C18.2638 37.0593 18.6652 37.1182 18.871 37.4551C19.0543 37.7556 18.953 37.9721 18.8765 38.0742C18.6607 38.3624 18.1155 38.4578 17.5507 38.3057C17.4761 38.2859 17.366 38.2509 17.2365 38.1935C16.6058 38.9492 16.1169 40.2137 16.6561 41.4957C17.058 42.4512 17.8724 42.6946 18.4849 42.7309C18.7272 42.7446 18.9732 42.7276 19.211 42.6876C19.2499 42.5234 19.3005 42.382 19.3513 42.2649C19.6116 41.6674 20.1115 41.2204 20.5668 41.1773C20.7915 41.1562 20.9779 41.237 21.0922 41.4049C21.2182 41.5893 21.2196 41.8107 21.0966 42.0278C20.8815 42.4071 20.2508 42.794 19.4919 42.9684C19.4019 43.5945 19.5252 44.5159 20.4068 45.6628C20.9044 46.3103 21.4518 46.5996 22.0344 46.5214C22.7161 46.4306 23.3382 45.8684 23.7896 45.2612C23.6922 44.766 23.7285 44.3125 23.8227 43.9806C23.9782 43.4331 24.2996 43.1217 24.6221 43.2031C24.6935 43.2214 24.861 43.2939 24.8757 43.5729C24.8957 43.9596 24.6108 44.6728 24.143 45.3359C24.3752 46.2539 25.14 47.3054 27.0165 47.8934C28.9077 48.4867 29.9468 47.6679 30.3983 47.1268C30.4185 47.1024 30.4385 47.0781 30.4579 47.0531C29.9949 46.4485 29.8082 45.8139 29.8272 45.3379C29.8508 44.7429 30.1705 44.3459 30.6618 44.301C30.9318 44.277 31.1532 44.4043 31.2871 44.66C31.5536 45.1682 31.434 46.191 30.8693 47.0439C31.4366 47.6828 32.3732 48.2639 33.788 48.5067C35.9052 48.872 37.1113 47.461 37.5316 46.8385C37.6532 46.6579 37.7579 46.4748 37.846 46.2943C37.3963 45.6334 37.186 44.9649 37.3313 44.5615C37.4091 44.3457 37.5832 44.2096 37.8215 44.1782C38.0666 44.1465 38.268 44.2385 38.3911 44.4381C38.625 44.8165 38.5461 45.5264 38.2241 46.261C38.3263 46.3981 38.4408 46.5362 38.5682 46.6732C39.0972 47.2415 40.5388 48.5056 42.5018 47.9542C44.2657 47.459 45.1225 45.9445 45.355 44.6489C44.6475 44.1489 44.184 43.5632 44.0986 43.109C44.0255 42.719 44.2227 42.4268 44.626 42.3271C45.1064 42.2092 45.4918 42.5173 45.6593 43.1528C45.7543 43.5123 45.7749 43.9796 45.706 44.4879C46.59 45.069 47.8532 45.521 49.2636 45.3375C50.4847 45.1793 50.9988 44.0773 51.2149 43.1809C51.3571 42.5904 51.3994 41.9582 51.3683 41.3695C50.5239 40.7762 49.9066 40.0042 49.7918 39.4832C49.7079 39.1021 49.8832 38.9159 49.995 38.8389C50.265 38.6524 50.5535 38.6467 50.8074 38.8209C51.2854 39.149 51.6054 40.1054 51.6858 41.1898C52.1747 41.5103 52.7327 41.7635 53.2935 41.8601C54.3852 42.0471 55.2563 41.6324 55.8835 40.626C56.9457 38.922 56.4436 37.6064 55.9949 36.9223C55.6108 36.9335 55.2555 36.8818 54.9497 36.7803C54.3771 36.5901 54.021 36.234 53.9971 35.8278C53.986 35.641 54.0702 35.4984 54.2282 35.4359C54.635 35.2759 55.4421 35.7137 56.0268 36.4148C56.0686 36.4648 56.1141 36.5223 56.1615 36.587C57.0757 36.5145 58.1363 36.059 58.9883 35.0474C60.0715 33.7614 59.4599 31.9842 58.57 30.8876C58.2932 31.0454 58.045 31.0868 57.8885 31.0939C57.3808 31.1143 56.8958 30.8556 56.735 30.4714C56.6286 30.2164 56.6868 29.9598 56.8949 29.7678C57.218 29.4692 57.8075 29.6565 58.4335 30.2543C58.498 30.3162 58.5629 30.3823 58.6275 30.4524C58.9861 30.1526 59.2879 29.6468 59.4985 28.9729C60.0521 27.2018 58.8554 25.7939 57.709 25.2396C57.598 25.6085 57.3804 25.8499 57.2344 25.9779C56.7686 26.3871 56.0874 26.502 55.7157 26.2335C55.5893 26.1421 55.3211 25.8685 55.5624 25.2984C55.8224 24.6839 56.5558 24.4854 57.4466 24.7792C57.4527 24.4279 57.3424 24.0306 57.1144 23.6095C56.3602 22.2149 55.1046 21.7926 54.1516 21.8096C54.1372 21.9279 54.1108 22.0467 54.0722 22.1649C53.889 22.7262 53.4699 23.1403 53.076 23.1493C52.8302 23.1484 52.6335 23.0021 52.5307 22.7301C52.3775 22.3251 52.6029 21.927 53.1186 21.6914C53.3266 21.596 53.569 21.53 53.8322 21.4979C53.8099 21.125 53.6415 20.6551 53.0788 20.2237C51.299 18.859 49.5933 20.4662 49.5216 20.5354C49.4565 20.5979 49.3525 20.5964 49.2894 20.5309C49.2266 20.4657 49.2283 20.3618 49.2935 20.299C49.313 20.2798 51.2729 18.4251 53.2786 19.9632C53.8182 20.3767 54.1238 20.9132 54.161 21.476C55.2688 21.4581 56.6255 22.0148 57.4033 23.4529C57.7222 24.0428 57.8061 24.5245 57.7724 24.9068C59.0563 25.4906 60.4374 27.0692 59.8118 29.071C59.5479 29.9159 59.1875 30.411 58.8402 30.6996C59.7629 31.8459 60.4971 33.7654 59.2394 35.259C58.3802 36.2792 57.3154 36.7728 56.3641 36.8937C56.8283 37.6798 57.2474 39.0585 56.1621 40.7998C55.2841 42.2084 54.0872 42.3293 53.2377 42.1837C52.7005 42.0914 52.1761 41.8723 51.7043 41.5884C51.7149 42.149 51.6616 42.7273 51.5338 43.2578C51.1941 44.6667 50.4027 45.521 49.3052 45.6632C47.9083 45.8442 46.6011 45.4301 45.6444 44.8403C45.3555 46.2101 44.4291 47.7543 42.5902 48.2704C40.4536 48.8706 38.8974 47.5096 38.3274 46.8968C38.2341 46.7968 38.146 46.6942 38.0636 46.5906C37.9858 46.7362 37.899 46.8809 37.8033 47.0223C37.3994 47.622 36.3215 48.8946 34.4696 48.895ZM30.7283 44.6262C30.7157 44.6262 30.7033 44.6271 30.6919 44.6281C30.373 44.657 30.1725 44.9273 30.1557 45.351C30.1399 45.7465 30.2883 46.2654 30.6529 46.7731C31.0991 46.0476 31.2052 45.2101 30.9965 44.8121C30.9143 44.6553 30.8102 44.6262 30.7283 44.6262ZM37.916 44.5004C37.8996 44.5004 37.8825 44.5014 37.8643 44.504C37.7475 44.519 37.6765 44.5729 37.6404 44.6728C37.5521 44.9181 37.6735 45.397 38.0018 45.9332C38.2204 45.3504 38.2538 44.8403 38.1119 44.6106C38.0658 44.5354 38.0041 44.5004 37.916 44.5004ZM24.5194 43.5139C24.4271 43.5139 24.2465 43.6924 24.1393 44.0703C24.0788 44.2832 24.046 44.5526 24.0663 44.8518C24.203 44.6276 24.3129 44.4106 24.3905 44.222C24.5891 43.7396 24.553 43.5417 24.5324 43.5154C24.5283 43.5145 24.5238 43.5139 24.5194 43.5139ZM44.816 42.6315C44.781 42.6315 44.7441 42.636 44.7052 42.6456C44.4679 42.7043 44.3805 42.8284 44.4218 43.0481C44.4821 43.3689 44.839 43.8396 45.406 44.2742C45.4416 43.8806 45.4174 43.5214 45.3419 43.236C45.2799 43.0001 45.1318 42.6315 44.816 42.6315ZM20.6361 41.5023C20.6241 41.5023 20.6115 41.5029 20.598 41.5042C20.3096 41.531 19.8922 41.8464 19.6529 42.3957C19.6257 42.4582 19.5988 42.5285 19.5743 42.6065C20.1636 42.4432 20.6507 42.1489 20.8113 41.8656C20.8919 41.7232 20.8557 41.6398 20.8215 41.5895C20.806 41.5671 20.7618 41.5023 20.6361 41.5023ZM50.4202 39.0224C50.3441 39.0224 50.2655 39.0514 50.1818 39.109C50.1527 39.1289 50.064 39.1901 50.1129 39.4121C50.205 39.831 50.6786 40.4307 51.3319 40.9368C51.2272 40.0478 50.9554 39.3204 50.6219 39.0914C50.5549 39.0456 50.4885 39.0224 50.4202 39.0224ZM17.4765 37.9368C17.54 37.9606 17.5946 37.9773 17.6363 37.9885C18.1021 38.115 18.4993 38.0306 18.6138 37.8776C18.6316 37.8539 18.6857 37.7817 18.5908 37.6265C18.4429 37.384 18.1233 37.5001 17.946 37.5909C17.7961 37.6674 17.6354 37.7851 17.4765 37.9368ZM54.4218 35.7296C54.3925 35.7296 54.3682 35.7335 54.3496 35.7409C54.3366 35.746 54.3219 35.7518 54.3254 35.8082C54.3408 36.0715 54.6199 36.3243 55.0536 36.4682C55.2619 36.5375 55.4966 36.5804 55.7483 36.5931C55.2305 35.9865 54.6616 35.7296 54.4218 35.7296ZM17.82 32.7982C17.9946 32.871 18.1419 32.9045 18.2266 32.9189C18.6197 32.9865 18.9947 32.9092 19.1374 32.7306C19.2066 32.644 19.2146 32.5395 19.1615 32.4109C19.1011 32.2649 18.7985 32.331 18.7066 32.3548C18.4496 32.4217 18.1374 32.5746 17.82 32.7982ZM57.2775 29.955C57.2118 29.955 57.1575 29.9723 57.1183 30.0085C57.013 30.1057 56.9861 30.2185 57.0386 30.3443C57.1302 30.5634 57.4613 30.7904 57.8738 30.7654C58.0393 30.7578 58.1991 30.7142 58.3513 30.6365C58.3036 30.5862 58.2554 30.5378 58.2071 30.4915C57.8532 30.1532 57.4997 29.955 57.2775 29.955ZM56.6794 24.976C56.3238 24.976 56.005 25.096 55.8654 25.426C55.79 25.6043 55.7363 25.8426 55.9085 25.9671C56.1269 26.1249 56.636 26.0665 57.0182 25.731C57.2121 25.5607 57.3405 25.351 57.403 25.1107C57.1738 25.0299 56.9182 24.976 56.6794 24.976ZM53.8155 21.8356C53.5991 21.8657 53.4082 21.9199 53.2558 21.9895C53.0885 22.0662 52.7125 22.2801 52.8385 22.6135C52.9179 22.8235 53.0332 22.8249 53.069 22.8204C53.2841 22.8156 53.6099 22.5243 53.7607 22.0626C53.78 22.0029 53.8008 21.926 53.8155 21.8356Z" fill="#241726"/>
<path d="M34.1857 71.8096L39.7032 71.3818L39.5207 72.9589L34.8813 73.3142L34.1857 71.8096Z" fill="white"/>
<path d="M39.8216 71.2682C39.7876 71.2329 39.7388 71.2137 39.6905 71.2185L34.1732 71.6463C34.1196 71.6502 34.0713 71.6804 34.0443 71.7268C34.0171 71.7734 34.0143 71.8301 34.0368 71.8788L34.7324 73.3834C34.7593 73.4418 34.8177 73.4787 34.8815 73.4787C34.8857 73.4787 34.8897 73.4787 34.894 73.4784L35.9266 73.3991C36.153 75.1218 29.9065 75.4079 33.8662 76.2132C37.4651 76.9452 37.5726 74.2798 37.5376 73.5587L37.6994 75.6154L39.0007 75.2285L38.6493 73.1904L39.5333 73.1226C39.6118 73.1168 39.6749 73.0559 39.684 72.9779L39.8665 71.4009C39.8719 71.3523 39.8555 71.3034 39.8216 71.2682ZM39.3732 72.8057L34.9826 73.1418L34.434 71.9554L39.5172 71.5612L39.3732 72.8057Z" fill="#241726"/>
<path d="M41.6966 70.9238L47.2604 71.1488L46.8432 72.7771L41.6966 72.959V70.9238Z" fill="white"/>
<path d="M45.6573 72.9833L46.849 72.9412C46.9218 72.9387 46.9841 72.8882 47.0022 72.8177L47.4196 71.1894C47.4319 71.1413 47.4218 71.0904 47.3924 71.0505C47.3627 71.0107 47.3168 70.9866 47.2672 70.9844L41.7033 70.7593C41.6627 70.7605 41.6154 70.774 41.583 70.8051C41.5508 70.8358 41.5326 70.8788 41.5326 70.9233V72.9587C41.5326 73.0032 41.5507 73.0458 41.5827 73.0766C41.6133 73.1065 41.6543 73.1229 41.6968 73.1229C41.6987 73.1229 41.7007 73.1229 41.7026 73.1229L42.9001 73.0805L42.564 75.228L43.8652 75.6149L44.0271 73.5582C43.9922 74.2793 44.0996 76.9447 47.6985 76.2127C51.7224 75.3946 45.2863 75.0044 45.6573 72.9833ZM41.8607 71.0944L47.051 71.3046L46.7146 72.6172L41.8607 72.7888V71.0944Z" fill="#241726"/>
</g>
<defs>
<clipPath id="clip0_3_712">
<rect width="80" height="80" fill="white" transform="translate(0.166687)"/>
</clipPath>
</defs>
</svg>
