<svg width="25" height="24" viewBox="0 0 25 24" fill="none" xmlns="http://www.w3.org/2000/svg">
<g clip-path="url(#clip0_12003_840)">
<path d="M18.7942 14.8224L17.9727 14.3481L20.174 13.7583L19.8102 12.4006L16.2512 13.3542L14.5725 12.385C14.5957 12.26 14.6084 12.1315 14.6084 12C14.6084 11.8684 14.5957 11.7398 14.5725 11.6149L16.2512 10.6457L19.8102 11.5994L20.174 10.2416L17.9727 9.65177L18.7942 9.17747L22.3194 8.96588L22.8385 6.03095L20.0373 5.01305L18.0914 7.96016L17.2699 8.43446L17.8598 6.23317L16.502 5.86939L15.5484 9.42842L13.8687 10.3982C13.6741 10.2315 13.449 10.0997 13.2028 10.0124V8.0742L15.8082 5.46879L14.8143 4.47488L13.2028 6.08633V5.13772L14.7772 1.98876L12.5 0L10.2227 1.98886L11.7972 5.13782V6.08642L10.1857 4.47497L9.19178 5.46889L11.7971 8.0743V10.0125C11.551 10.0998 11.3259 10.2316 11.1312 10.3983L9.45154 9.42852L8.49792 5.86949L7.14018 6.23326L7.73003 8.43456L6.90854 7.96025L4.96269 5.01314L2.16148 6.03104L2.68058 8.96597L6.20578 9.17757L7.02727 9.65187L4.82597 10.2417L5.1898 11.5994L8.74882 10.6458L10.4275 11.615C10.4043 11.74 10.3916 11.8685 10.3916 12C10.3916 12.1316 10.4043 12.2602 10.4275 12.3851L8.74882 13.3543L5.1898 12.4006L4.82597 13.7584L7.02727 14.3482L6.20578 14.8225L2.68058 15.034L2.16148 17.969L4.96274 18.9869L6.90859 16.0397L7.73012 15.5654L7.14028 17.7667L8.49801 18.1306L9.45163 14.5715L11.1313 13.6018C11.326 13.7684 11.5511 13.9003 11.7972 13.9875V15.9258L9.19187 18.5311L10.1858 19.525L11.7973 17.9135V18.8621L10.2228 22.0111L12.5001 24L14.7774 22.0111L13.2029 18.8621V17.9135L14.8144 19.525L15.8083 18.5311L13.2029 15.9258V13.9875C13.4491 13.9003 13.6742 13.7684 13.8689 13.6018L15.5485 14.5715L16.5022 18.1306L17.8599 17.7667L17.2701 15.5654L18.0916 16.0397L20.0374 18.9869L22.8387 17.969L22.3196 15.034L18.7942 14.8224Z" fill="#FF4646"/>
</g>
<defs>
<clipPath id="clip0_12003_840">
<rect width="24" height="24" fill="white" transform="translate(0.5)"/>
</clipPath>
</defs>
</svg>
